<?xml version="1.0" encoding="utf-8"?>
<svg version="1.0" id="svg2" x="0px" y="0px" width="1169.283px" height="1197.873px" viewBox="0 0 1169.283 1197.873" enable-background="new 0 0 1169.283 1197.873" xmlns="http://www.w3.org/2000/svg">
  <rect width="200.538" height="50.022" style="fill: rgb(252, 238, 211); stroke: rgb(255, 255, 255); stroke-width: 2px; visibility: hidden;" x="930.664" y="37.016">
    <title>1-9</title>
  </rect>
  <rect x="930.664" y="87.038" width="200.538" height="50.022" style="stroke-width: 2px; stroke: rgb(255, 255, 255); fill: rgb(242, 169, 142); visibility: hidden;">
    <title>10-49</title>
  </rect>
  <rect x="930.664" y="137.06" width="200.538" height="50.022" style="stroke-width: 2px; stroke: rgb(255, 255, 255); fill: rgb(227, 102, 84); visibility: hidden;">
    <title>50-199</title>
  </rect>
  <rect x="930.664" y="187.082" width="200.538" height="50.022" style="stroke-width: 2px; stroke: rgb(255, 255, 255); fill: rgb(229, 53, 75); visibility: hidden;">
    <title>200-499</title>
  </rect>
  <rect x="930.664" y="237.104" width="200.538" height="50.022" style="stroke-width: 2px; stroke: rgb(255, 255, 255); fill: rgb(135, 53, 63); visibility: hidden;">
    <title>500-999</title>
  </rect>
  <rect x="930.664" y="287.126" width="200.538" height="50.022" style="stroke-width: 2px; stroke: rgb(255, 255, 255); fill: rgb(99, 6, 6); visibility: hidden;">
    <title>1000+</title>
  </rect>
  <g>
    <title>Gegharkunik</title>
    <polygon points="758.68 341.17 761.16 346.94 760.22 354.52 760 356.28 751.48 363.59 747.42 369.39 742.92 369.89 740.42 364.89 740.42 357.39 736.12 354.41 737.69 342.1 738.199 341.38 740.58 338.07 744.71 335.88 748.76 335.27 753.81 337.22" style="stroke-width: 2px; stroke: rgb(255, 255, 255); fill: rgb(242, 169, 142);">
      <title>Artsvashen</title>
    </polygon>
    <path d="M 693.285 340.784 C 693.176 341.774 693.096 342.654 693.115 342.814 C 693.206 343.534 693.666 344.544 693.886 345.264 C 695.026 345.934 696.646 346.664 697.646 347.484 L 699.076 349.524 L 699.347 351.324 C 699.247 352.334 698.657 353.454 698.617 354.464 C 698.537 356.224 698.867 358.284 698.977 360.064 C 699.117 360.264 700.547 362.384 700.607 362.434 C 701.517 363.204 703.197 363.924 704.267 364.544 L 713.447 363.344 C 715.577 364.844 717.777 366.634 720.008 367.964 C 720.058 367.994 722.218 368.604 722.428 368.664 C 724.008 371.344 725.568 374.034 727.168 376.714 C 725.878 379.264 723.918 382.654 722.867 385.224 C 722.847 385.274 722.588 387.734 722.557 387.954 L 725.157 393.404 C 723.867 395.004 721.987 398.324 721.437 400.254 C 721.417 400.334 720.887 404.284 720.887 404.344 C 720.887 404.444 721.697 408.674 721.707 408.684 C 721.717 408.704 724.427 411.904 724.467 411.934 L 734.076 419.324 C 735.946 420.764 736.877 421.764 738.877 423.014 C 739.866 423.634 751.557 424.674 753.247 425.054 C 754.066 425.234 760.257 428.904 760.747 429.404 C 760.767 429.424 763.717 433.794 763.776 433.914 C 764.426 435.154 767.096 443.074 767.396 443.414 C 768.816 445.014 769.886 445.654 771.476 447.094 L 779.656 454.454 C 780.846 455.624 784.616 459.854 785.587 461.174 C 787.177 463.354 788.187 466.094 789.797 468.264 C 791.227 470.194 794.217 473.184 795.917 475.104 C 799.207 475.324 802.707 475.334 805.967 475.764 C 807.337 475.934 811.156 476.814 812.477 477.244 L 826.847 482.294 C 829.657 483.274 831.286 483.684 834.036 484.814 C 836.186 485.704 837.307 486.424 839.396 487.444 L 850.116 492.704 C 853.156 494.184 856.066 496.114 858.547 498.424 C 862.667 499.044 863.076 498.584 866.007 501.524 L 872.257 501.524 C 874.187 501.524 877.656 503.664 879.007 505.024 C 880.547 506.584 881.817 508.674 883.007 510.524 C 885.347 510.584 892.127 510.774 894.007 510.274 C 895.507 509.864 897.286 508.754 898.507 507.774 C 900.517 510.664 902.417 513.694 904.507 516.524 C 905.897 518.404 908.257 519.094 910.507 518.524 C 910.397 521.104 910.257 523.694 910.257 526.274 C 910.257 527.904 910.397 528.964 908.757 529.774 C 907.417 530.434 904.177 527.134 902.757 526.524 C 899.547 525.134 902.777 530.994 903.507 531.774 C 904.247 532.554 905.277 533.224 906.147 533.864 C 908.087 535.304 914.307 539.624 915.507 541.274 C 917.307 543.724 917.036 547.254 916.257 550.024 C 915.107 554.104 914.257 563.634 914.257 568.024 C 914.257 571.454 912.297 573.024 910.007 575.274 C 906.677 578.554 909.097 583.684 911.007 587.024 C 911.937 588.654 911.727 591.524 909.757 591.524 C 908.757 591.524 907.736 591.764 906.747 591.854 C 905.337 591.984 903.917 592.024 902.507 592.024 C 899.906 592.024 898.187 591.684 896.507 593.774 C 894.727 595.994 892.536 597.404 889.757 598.024 C 886.297 598.794 890.236 603.184 891.257 604.524 C 892.116 605.644 893.017 608.854 892.757 610.274 C 892.717 610.524 888.457 617.535 888.007 618.274 C 886.076 621.394 884.607 627.835 884.257 631.524 C 883.957 634.705 882.747 636.894 879.257 636.774 C 876.377 636.674 877.607 638.524 873.757 638.524 C 869.227 638.524 868.507 644.825 867.257 648.024 C 866.307 650.444 864.387 651.625 863.257 648.774 C 862.777 647.554 860.866 646.464 860.007 645.274 C 858.607 643.325 859.177 640.964 856.257 640.274 C 853.267 639.564 854.097 638.524 853.007 636.024 C 851.786 633.214 849.927 633.684 847.507 634.274 C 845.727 634.705 839.177 633.184 837.257 632.524 C 835.567 631.934 833.557 630.614 831.757 630.774 C 826.286 631.245 820.457 631.535 815.007 630.774 C 810.347 630.114 808.727 632.444 805.007 634.274 C 801.927 635.785 795.357 636.304 791.757 636.774 C 788.807 637.154 785.937 638.304 783.507 640.024 C 781.977 641.104 779.977 642.964 779.257 644.774 C 779.257 644.774 773.906 641.434 772.587 641.434 C 771.257 641.434 770.927 640.104 769.927 636.774 C 768.927 633.455 765.906 634.764 764.587 636.114 C 763.257 637.474 759.267 637.114 759.267 637.114 C 759.267 637.114 758.607 640.764 757.247 643.114 C 755.896 645.474 754.257 651.114 754.257 651.114 C 754.257 651.114 749.906 649.434 749.247 648.434 C 748.587 647.434 746.587 648.434 744.597 649.434 C 742.607 650.424 740.587 651.785 739.587 653.114 C 738.587 654.444 737.927 656.434 735.597 656.764 C 733.277 657.094 728.597 658.094 726.937 658.094 C 725.277 658.094 721.257 660.774 718.267 662.774 C 715.277 664.764 713.927 662.104 711.937 659.455 C 709.937 656.795 706.927 661.444 704.267 662.444 C 701.607 663.434 700.587 664.104 697.257 661.114 C 693.937 658.125 694.607 657.764 693.576 659.114 C 692.556 660.474 691.917 662.444 690.587 663.104 C 689.257 663.764 685.576 663.434 682.927 663.104 C 680.267 662.774 676.587 664.434 674.927 664.764 C 673.257 665.094 667.917 664.764 664.927 664.104 C 661.937 663.434 660.247 663.104 658.927 663.434 C 657.597 663.764 655.597 664.104 653.247 664.104 C 650.896 664.104 648.267 666.094 646.936 667.114 C 645.606 668.144 640.596 669.774 638.606 668.114 C 636.606 666.455 635.917 668.774 635.917 670.444 C 635.917 672.104 635.917 676.774 635.917 678.444 C 635.917 680.104 635.257 680.434 634.587 681.434 C 633.927 682.424 630.607 686.774 630.607 686.774 C 630.607 686.774 628.248 688.434 625.927 688.764 C 623.597 689.094 623.937 689.764 623.597 693.114 C 623.267 696.465 619.257 697.094 617.257 697.434 C 615.267 697.764 613.906 698.785 612.247 701.114 C 610.587 703.434 607.936 703.104 606.936 701.444 C 606.276 700.344 605.747 699.535 605.466 699.114 C 605.546 698.575 605.575 697.915 605.575 697.094 C 605.575 693.444 607.265 691.094 607.596 687.434 C 607.936 683.785 607.626 681.124 606.266 677.444 C 604.916 673.764 603.916 669.415 603.916 666.094 C 603.916 662.773 604.556 661.134 605.575 659.114 C 606.605 657.094 606.605 655.104 607.935 653.774 C 609.255 652.444 609.595 650.424 609.255 647.764 C 608.925 645.114 610.614 644.774 607.595 644.774 C 604.585 644.774 601.595 646.804 599.935 644.774 C 598.265 642.764 596.246 641.764 593.925 641.764 C 591.595 641.764 590.265 643.094 590.265 640.104 C 590.265 637.114 590.265 629.774 590.265 628.444 C 590.265 627.114 592.895 626.424 588.585 625.764 C 584.265 625.094 581.245 621.774 580.245 621.114 C 579.255 620.444 576.285 616.434 574.935 614.444 C 573.575 612.444 572.585 611.424 572.585 610.094 C 572.585 608.764 571.895 604.804 573.905 602.784 C 575.935 600.763 576.265 599.433 576.595 598.444 C 576.925 597.444 576.955 596.774 575.265 596.114 C 573.575 595.454 571.585 594.424 570.925 593.434 C 570.255 592.434 569.925 592.104 571.585 590.104 C 573.245 588.114 576.595 585.124 576.595 581.444 C 576.595 577.764 577.255 573.444 576.925 572.114 C 576.595 570.784 573.905 566.444 573.905 566.444 C 575.155 564.904 574.645 559.974 571.465 560.374 C 568.275 560.784 568.645 559.974 568.645 557.564 C 568.645 555.164 564.265 553.184 564.265 553.184 L 561.055 545.984 L 556.665 545.584 C 556.665 545.584 553.425 541.534 551.445 539.964 C 549.465 538.384 547.865 535.544 546.255 532.764 C 544.645 529.984 541.465 525.534 541.465 523.964 C 541.465 522.384 538.655 517.194 538.655 514.784 C 538.655 512.374 540.265 508.764 540.265 508.764 L 545.055 509.164 L 543.845 501.964 C 543.845 501.964 544.615 499.994 543.045 497.584 C 541.465 495.174 539.865 492.364 539.865 492.364 L 538.655 486.374 C 538.655 486.374 535.045 480.784 535.045 477.964 C 535.045 475.154 533.865 465.584 533.865 462.774 C 533.865 459.964 533.865 458.784 533.065 456.784 C 532.265 454.774 531.055 453.934 532.265 450.754 C 533.465 447.574 531.895 445.134 533.865 443.154 C 535.845 441.184 534.675 438.744 533.465 435.964 C 532.265 433.184 530.255 431.574 530.255 431.574 L 522.655 430.374 C 522.655 430.374 516.665 429.934 515.865 427.964 C 515.055 425.984 513.055 419.564 513.055 419.564 C 513.055 419.564 514.255 415.974 516.265 415.174 C 518.275 414.374 518.645 412.794 518.645 410.784 C 518.645 408.784 516.265 406.774 516.265 406.774 C 516.265 406.774 512.645 397.944 512.245 396.364 C 511.845 394.784 511.475 391.974 508.665 391.974 C 505.855 391.974 492.665 390.374 492.665 390.374 C 492.665 390.374 491.055 387.594 491.055 384.784 C 491.055 381.964 490.655 379.594 490.255 377.984 C 489.855 376.374 490.255 373.594 491.465 370.784 C 492.665 367.974 492.665 367.544 490.255 364.364 C 487.845 361.184 487.445 355.564 487.445 355.564 C 487.445 355.564 491.055 355.594 492.665 353.984 C 494.275 352.374 495.045 351.974 495.045 349.964 C 495.045 347.964 495.045 342.774 495.045 342.774 C 495.045 342.774 497.505 339.774 498.505 339.024 C 499.505 338.274 501.755 338.774 502.755 340.524 C 503.755 342.274 503.505 342.774 506.505 342.774 C 509.505 342.774 510.755 344.024 512.505 341.774 C 514.255 339.524 511.755 338.024 515.255 336.274 C 518.755 334.524 519.755 334.774 521.005 335.774 C 522.255 336.774 525.255 338.524 527.255 336.024 C 529.255 333.524 530.255 331.524 531.255 330.274 C 532.255 329.024 533.255 330.024 534.755 330.024 C 536.255 330.024 540.755 331.274 540.755 331.274 C 540.755 331.274 545.005 336.274 546.755 338.274 C 548.505 340.274 549.755 341.024 552.005 341.024 C 554.255 341.024 556.755 341.524 558.755 342.774 C 560.755 344.024 568.005 347.274 570.505 348.774 C 573.005 350.274 573.505 349.524 575.005 347.274 C 576.505 345.024 581.755 339.024 584.505 337.274 C 587.255 335.524 587.255 335.274 591.755 333.024 C 596.255 330.774 596.505 327.524 596.255 325.524 C 596.005 323.524 596.505 316.524 596.755 314.524 C 597.005 312.524 596.505 311.274 598.255 311.024 C 600.005 310.774 604.255 311.524 607.255 312.024 C 610.255 312.524 611.755 311.024 613.505 311.024 C 615.255 311.024 620.755 310.024 620.505 308.024 C 620.255 306.024 620.505 302.774 622.505 302.024 C 624.505 301.274 628.005 300.024 628.005 300.024 C 628.005 300.024 630.505 301.274 633.005 303.274 C 635.505 305.274 638.505 306.524 640.255 305.024 C 642.005 303.524 643.005 300.274 645.255 302.274 C 647.505 304.274 647.755 306.024 649.255 305.274 C 650.755 304.524 654.755 305.524 655.755 307.024 C 656.755 308.524 660.505 313.274 662.005 315.024 C 663.505 316.774 668.255 320.774 669.755 321.024 C 671.255 321.274 674.755 322.524 674.755 322.524 C 674.755 322.524 680.505 326.774 682.005 328.524 C 683.505 330.274 688.255 332.524 688.255 332.524 L 689.005 337.024 L 693.005 340.774 L 693.285 340.784 Z" style="stroke-width: 2px; stroke: rgb(255, 255, 255); fill: rgb(242, 169, 142);">
      <title>Gegharkunik</title>
    </path>
  </g>
  <path d="M 813.402 827.307 C 813.402 827.307 810.552 823.697 810.213 822.036 C 809.883 820.366 810.853 816.686 812.873 815.026 C 814.893 813.366 817.553 809.686 816.883 806.366 C 816.223 803.047 815.893 799.026 816.883 797.036 C 817.883 795.047 820.513 785.356 821.532 782.696 C 822.562 780.036 823.562 778.356 822.892 775.026 C 822.232 771.706 816.222 757.696 815.562 756.366 C 814.892 755.047 813.892 752.356 814.892 750.366 C 815.892 748.366 817.222 745.686 817.222 745.686 C 817.222 745.686 822.562 742.726 824.222 740.036 C 825.882 737.356 825.882 737.026 826.882 735.026 C 827.872 733.036 828.232 728.026 832.552 726.036 C 836.872 724.036 836.842 723.016 837.531 720.356 C 838.231 717.696 841.552 712.356 842.552 711.356 C 843.542 710.366 847.892 707.706 847.892 707.706 L 856.962 703.477 C 858.122 707.107 859.512 711.617 859.582 712.157 C 859.792 713.777 860.241 719.077 860.672 720.678 C 861.092 722.228 862.342 723.768 863.552 724.768 C 863.661 724.858 866.262 726.648 866.272 726.648 L 876.182 729.648 C 878.112 730.228 879.232 730.458 881.132 731.148 C 883.571 732.028 887.852 734.268 890.361 735.428 C 893.761 737.008 897.172 738.747 900.622 740.188 C 903.252 741.288 906.071 742.158 908.762 743.118 L 919.832 747.108 C 919.941 747.258 921.241 748.919 921.252 748.958 C 921.842 750.809 921.812 752.998 922.312 754.889 C 922.333 754.969 923.333 756.949 923.422 757.129 C 924.342 758.868 925.132 759.979 926.762 761.108 C 927.472 761.608 928.562 761.978 929.182 762.518 C 929.772 763.028 932.492 766.118 932.862 766.788 C 933.342 767.648 933.083 768.488 933.362 769.299 C 933.552 769.859 934.062 770.469 934.322 771.019 C 934.492 771.369 934.562 771.789 934.713 772.149 C 934.782 772.299 935.543 773.929 935.593 773.999 C 936.162 774.779 943.043 778.959 943.983 779.399 C 944.473 779.629 945.084 779.709 945.593 779.92 C 947.103 780.56 947.933 782.31 948.083 783.859 C 947.683 785.339 944.982 786.029 944.022 787.42 C 943.952 788.159 945.043 789.539 945.472 790.069 C 946.132 790.88 947.092 791.739 947.951 792.319 C 948.052 792.389 949.661 793.329 949.712 793.34 C 951.941 794.11 955.082 792.86 957.212 792.38 C 958.762 792.8 961.882 796.039 963.042 797.359 C 963.502 797.889 963.922 798.569 964.422 799.049 C 964.942 799.549 965.642 799.939 966.201 800.408 C 966.741 800.858 967.222 801.438 967.771 801.879 C 969.591 803.288 972.082 804.979 974.071 806.179 C 979.181 809.239 980.691 809.359 982.842 815.689 C 983.682 818.149 983.792 820.479 982.281 822.699 C 982.302 822.869 982.391 824.399 982.411 824.47 C 982.451 824.59 983.241 825.789 983.351 825.999 C 983.872 826.939 984.311 827.979 984.721 828.97 C 984.331 830.13 983.511 833.699 983.561 834.85 C 983.681 835.02 984.781 836.6 984.841 836.65 C 984.891 836.69 986.351 837.43 986.49 837.5 C 987.64 838.08 988.98 837.681 989.631 836.62 C 990.221 835.66 991.49 833.99 992.631 833.62 C 993.07 833.48 996.801 833.37 997.381 833.37 C 999.371 833.37 1003.101 832.74 1004.881 831.87 C 1006.11 831.261 1007.261 830.48 1008.53 829.96 C 1008.9 829.811 1009.591 829.761 1009.881 829.62 C 1011.191 828.971 1012.431 828.181 1013.751 827.551 C 1014.461 827.2 1015.261 826.99 1015.971 826.651 C 1017.351 825.991 1018.631 825.121 1020.031 824.471 C 1020.941 824.051 1022.011 823.71 1022.882 823.221 C 1024.472 822.321 1025.942 821.181 1027.512 820.25 C 1028.622 819.591 1029.842 819.091 1030.951 818.44 C 1032.972 817.25 1034.941 815.61 1037.111 814.72 C 1041.151 813.07 1045.681 811.92 1050.042 811.619 C 1050.222 811.599 1051.622 811.489 1051.712 811.499 C 1051.752 811.51 1053.071 812.01 1053.111 812.039 C 1053.481 812.269 1054.771 814.789 1054.911 815.289 C 1055.161 816.14 1055.082 817.069 1055.512 817.899 C 1056.852 820.479 1058.382 819.199 1059.462 820.259 C 1060.672 821.458 1061.312 823.429 1062.582 824.469 C 1065.252 824.339 1066.951 820.819 1068.191 818.819 C 1069.201 818.329 1070.591 818.489 1071.641 818.679 L 1073.311 819.939 C 1073.671 820.809 1073.591 821.769 1073.491 822.669 C 1073.262 824.898 1073.012 827.139 1072.802 829.379 C 1072.722 830.139 1072.752 830.948 1072.642 831.698 C 1072.542 832.348 1072.172 833.108 1072.152 833.748 C 1072.142 833.839 1072.452 835.419 1072.482 835.618 C 1072.592 836.268 1072.642 837.078 1072.833 837.698 C 1073.223 838.938 1074.853 840.688 1075.923 841.398 C 1076.952 842.098 1078.773 842.138 1079.813 841.448 L 1080.253 840.158 L 1081.543 839.228 L 1082.803 839.248 C 1083.733 839.879 1085.553 841.309 1086.702 840.978 C 1088.263 840.008 1088.862 837.968 1090.873 837.438 C 1092.662 836.968 1094.803 837.168 1096.623 836.938 C 1098.003 836.768 1099.402 836.408 1100.772 836.128 C 1102.702 836.878 1104.642 837.728 1106.382 838.867 C 1108.082 839.968 1111.611 841.187 1113.632 841.617 C 1115.262 841.968 1119.792 842.468 1120.752 844.388 C 1121.432 845.758 1121.872 847.308 1122.502 848.707 C 1123.531 850.997 1124.382 851.728 1124.462 854.378 L 1123.451 855.077 C 1121.561 855.008 1120.441 854.527 1118.891 854.327 C 1117.341 854.128 1114.311 855.357 1113.481 856.687 C 1112.771 857.837 1112.231 859.487 1111.431 860.527 C 1110.921 861.187 1109.821 861.817 1109.131 862.267 C 1107.401 863.407 1105.671 864.217 1103.761 865.057 C 1103.281 865.267 1102.681 865.427 1102.221 865.687 C 1100.261 866.797 1100.031 868.937 1100.481 870.947 C 1100.651 871.707 1101.752 874.687 1102.021 875.107 C 1103.211 876.977 1107.411 880.967 1109.221 882.527 C 1111.621 884.588 1115.391 887.298 1115.851 890.737 C 1115.101 891.258 1113.491 891.357 1112.641 891.177 C 1109.851 888.616 1106.511 889.326 1103.401 887.887 C 1102.131 885.217 1099.922 881.427 1096.391 883.397 C 1095.561 883.857 1093.621 885.597 1093.121 886.367 C 1091.051 889.567 1089.57 893.138 1087.501 896.357 C 1087.261 896.717 1087.03 897.247 1086.751 897.567 C 1086.711 897.617 1086.021 898.097 1085.94 898.147 C 1085.84 898.207 1084.69 898.857 1084.64 898.877 C 1082.4 899.536 1074.57 896.366 1072.48 895.897 C 1072.31 895.857 1070.89 896.047 1070.6 896.027 C 1070.121 895.977 1069.59 895.657 1069.1 895.597 C 1067.49 895.397 1065.76 895.887 1064.7 897.177 C 1064.6 897.297 1063.43 899.587 1063.41 899.697 C 1063.27 900.307 1063.41 901.077 1063.341 901.707 C 1063.28 902.157 1062.611 904.848 1062.32 905.258 C 1061.621 906.258 1059.76 907.268 1058.69 908.888 L 1058.23 909.867 C 1057.88 911.787 1059.97 915.298 1060.71 916.977 C 1061.319 918.377 1061.859 919.797 1062.46 921.187 C 1062.77 921.907 1063.18 922.617 1063.439 923.337 C 1063.639 923.887 1063.719 924.536 1063.879 925.107 C 1064.448 927.217 1064.948 929.467 1065.979 931.397 C 1067.169 933.627 1068.929 935.627 1070.279 937.757 C 1071.38 939.477 1072.189 940.847 1073.739 942.277 C 1075.519 943.927 1077.729 944.997 1079.67 946.407 C 1082.35 948.347 1087.3 953.267 1090.44 954.017 C 1094.22 953.797 1096.001 948.727 1099.081 947.087 L 1100.45 947.206 C 1101.551 948.236 1102.18 949.467 1103.091 950.616 C 1104.311 952.156 1104.751 952.306 1105.841 954.226 C 1106.261 954.976 1106.541 955.886 1107.051 956.586 C 1108.221 958.195 1110.061 959.506 1111.021 961.275 C 1111.111 961.435 1111.851 964.416 1111.872 964.595 C 1112.071 966.695 1110.262 968.425 1109.311 970.155 C 1109.411 971.676 1111.661 980.716 1112.281 981.876 C 1112.561 982.405 1113.111 982.886 1113.431 983.386 C 1113.791 983.936 1114.021 984.586 1114.391 985.115 C 1115.081 986.105 1115.761 986.575 1116.351 987.845 C 1117.271 988.135 1118.122 988.625 1119.021 988.925 C 1119.751 989.165 1120.531 989.295 1121.261 989.515 C 1122.931 990.025 1124.531 990.744 1126.191 991.295 C 1126.811 992.095 1126.721 992.805 1126.981 993.675 C 1127.451 995.244 1128.372 998.454 1129.471 999.725 C 1130.001 1000.355 1131.891 1001.475 1132.731 1001.635 C 1133.991 1001.875 1136.361 1001.505 1137.741 1001.505 C 1139.611 1001.505 1141.851 1001.775 1143.641 1002.375 C 1144.031 1002.835 1144.341 1003.534 1144.491 1004.114 C 1144.281 1004.684 1143.292 1005.284 1142.811 1005.604 C 1139.001 1008.165 1135.841 1006.614 1132.031 1008.424 C 1131.372 1008.743 1130.641 1009.323 1130.021 1009.734 C 1125.391 1012.744 1124.311 1014.354 1121.641 1018.944 C 1121.021 1020.014 1120.621 1021.314 1119.771 1022.244 C 1118.711 1023.425 1117.011 1024.005 1116.011 1025.354 C 1114.791 1027.014 1114.49 1028.504 1112.871 1030.004 C 1112.06 1029.564 1111.32 1027.653 1111.2 1026.844 C 1111.02 1025.634 1111.15 1024.264 1111.051 1023.044 C 1110.971 1021.993 1110.721 1020.953 1110.631 1019.903 C 1110.441 1017.573 1110.561 1015.193 1110.171 1012.863 C 1109.961 1011.643 1109.07 1010.973 1108.41 1010.023 L 1107.02 1009.493 C 1106.02 1009.613 1103.73 1010.424 1103.05 1011.124 C 1101.949 1012.264 1100.82 1013.773 1099.86 1015.044 C 1098.791 1016.453 1097.581 1019.743 1095.48 1019.773 C 1093.86 1018.624 1088.49 1016.073 1086.94 1015.493 C 1086.77 1015.424 1085.03 1015.514 1084.64 1015.433 C 1083.87 1015.293 1083.06 1014.953 1082.29 1014.863 C 1081.64 1014.783 1079.609 1015.103 1079 1015.513 C 1076.92 1016.883 1076.779 1019.013 1076.67 1021.273 C 1076.59 1023.133 1076.55 1025.113 1076.949 1026.953 C 1077.099 1027.643 1077.429 1028.323 1077.609 1029.014 C 1078 1030.514 1078.79 1035.243 1080.389 1036.214 C 1081.649 1036.974 1083.379 1037.124 1084.819 1036.874 C 1086.429 1037.874 1088.029 1038.884 1089.609 1039.914 C 1091.029 1039.884 1093.239 1038.004 1095.099 1037.533 C 1096.189 1037.914 1097.349 1038.603 1098.149 1039.443 C 1097.37 1041.303 1094.649 1044.643 1094.979 1046.733 C 1095.219 1048.233 1096.389 1048.834 1097.469 1049.624 C 1097.879 1049.924 1098.359 1050.483 1098.799 1050.703 C 1099.789 1051.203 1100.479 1050.783 1101.289 1052.004 C 1101.688 1052.613 1101.849 1054.464 1101.698 1055.153 C 1101.629 1055.473 1101.308 1055.813 1101.249 1056.124 C 1101.059 1057.033 1102.169 1059.584 1102.769 1060.243 C 1103.469 1061.014 1104.719 1061.353 1105.589 1061.863 C 1106.589 1062.443 1107.179 1063.233 1108.408 1063.464 C 1110.058 1065.363 1111.408 1067.323 1111.959 1069.764 L 1111.249 1071.614 C 1109.309 1072.125 1106.728 1074.684 1106.579 1076.795 L 1106.768 1077.944 C 1107.348 1078.904 1108.318 1079.854 1109.028 1080.744 C 1110.108 1081.324 1110.808 1081.005 1111.879 1081.074 C 1113.369 1081.184 1115.799 1081.764 1116.799 1082.965 C 1117.179 1083.715 1117.028 1084.505 1116.849 1085.275 C 1116.489 1086.825 1115.769 1087.775 1114.799 1089.015 C 1114.689 1089.155 1113.879 1090.155 1113.839 1090.244 C 1113.408 1091.114 1113.109 1092.234 1112.778 1093.154 C 1111.919 1095.614 1110.968 1098.104 1110.258 1100.614 C 1109.938 1101.715 1109.758 1102.864 1109.428 1103.954 C 1108.958 1105.484 1108.238 1106.965 1107.758 1108.505 C 1107.388 1109.665 1107.278 1110.755 1107.048 1111.935 C 1107.008 1112.105 1106.788 1112.545 1106.777 1112.685 C 1106.588 1115.275 1109.248 1117.005 1108.187 1119.775 C 1107.498 1121.575 1106.038 1122.475 1104.917 1123.905 C 1104.427 1124.535 1103.566 1127.126 1103.406 1127.905 C 1103.386 1128.015 1103.226 1129.845 1103.236 1129.935 C 1103.337 1131.465 1106.507 1138.115 1107.306 1139.475 C 1108.846 1142.095 1110.656 1144.485 1112.086 1147.185 C 1112.356 1147.695 1112.846 1148.375 1113.025 1148.925 C 1113.296 1149.725 1113.655 1152.085 1113.715 1152.985 C 1113.805 1154.385 1113.555 1155.815 1113.785 1157.215 C 1114.165 1159.595 1114.625 1161.954 1115.154 1164.315 L 1110.354 1167.925 L 1107.014 1166.885 L 1106.134 1160.704 L 1104.694 1159.314 L 1102.715 1159.014 C 1101.215 1159.924 1099.145 1160.264 1097.495 1160.524 L 1092.564 1161.314 C 1092.564 1161.314 1087.955 1159.844 1087.894 1159.804 C 1087.654 1159.674 1084.184 1156.624 1083.745 1156.254 C 1082.635 1155.874 1079.795 1156.304 1078.785 1156.674 L 1076.365 1157.944 C 1075.894 1158.194 1075.564 1158.244 1075.154 1158.585 C 1074.215 1159.335 1072.965 1161.095 1072.144 1162.045 L 1070.374 1162.045 L 1062.894 1155.984 L 1059.464 1153.204 C 1059.104 1153.005 1056.144 1152.345 1055.544 1152.085 C 1053.164 1151.034 1050.784 1149.605 1048.464 1148.395 C 1048.144 1148.435 1043.954 1148.875 1043.924 1148.895 C 1042.534 1149.565 1036.184 1153.995 1034.534 1155.085 L 1030.614 1153.845 L 1026.874 1155.565 L 1024.324 1154.666 C 1023.023 1154.846 1018.414 1157.836 1017.494 1158.596 C 1016.634 1159.296 1015.683 1160.756 1014.954 1161.626 L 1014.683 1161.936 C 1013.574 1163.306 1011.313 1166.416 1010.153 1167.516 C 1009.153 1168.455 1006.313 1170.156 1005.074 1171.006 L 1004.313 1171.126 C 1003.043 1171.325 1001.704 1171.705 1000.454 1172.046 C 999.903 1172.596 995.483 1177.136 995.183 1177.336 C 994.963 1177.485 991.133 1178.416 990.893 1178.565 C 990.693 1178.705 986.553 1182.965 986.103 1183.416 C 985.933 1183.445 984.263 1183.745 984.153 1183.745 L 970.023 1181.916 L 971.103 1177.016 C 971.954 1173.166 972.874 1169.296 973.653 1165.426 C 973.914 1164.136 974.013 1162.776 974.214 1161.476 C 974.364 1160.506 974.704 1159.336 974.724 1158.376 C 974.745 1157.655 970.924 1148.256 970.754 1147.785 C 970.454 1146.955 970.374 1146.006 970.054 1145.185 C 969.534 1143.865 968.734 1142.625 968.214 1141.305 C 967.064 1138.405 966.284 1135.325 965.094 1132.435 C 963.904 1129.565 962.444 1126.865 961.674 1123.815 C 961.044 1121.305 960.634 1118.725 959.994 1116.215 C 959.784 1115.385 959.353 1114.565 959.084 1113.744 C 958.563 1112.125 957.624 1109.394 957.414 1107.744 L 957.424 1105.974 C 957.454 1102.754 958.144 1099.564 957.334 1096.374 L 957.044 1095.193 C 956.684 1094.443 955.693 1093.563 955.114 1092.973 C 953.023 1090.833 951.374 1089.563 950.384 1086.593 C 949.954 1085.293 949.944 1083.923 949.594 1082.643 C 949.334 1081.703 948.844 1080.793 948.554 1079.863 C 948.115 1078.443 947.554 1075.283 946.684 1074.183 C 945.684 1072.923 943.234 1071.003 941.814 1070.203 C 939.184 1068.724 935.514 1067.724 933.634 1065.193 C 933.224 1064.643 932.824 1063.603 932.534 1062.964 C 931.903 1061.564 930.523 1057.604 930.374 1056.144 C 930.264 1055.074 930.514 1054.104 930.574 1053.054 C 930.603 1052.514 930.483 1051.894 930.553 1051.364 C 930.864 1049.074 932.393 1047.104 931.324 1044.665 C 930.344 1042.444 927.124 1040.015 925.744 1037.975 C 925.454 1037.555 925.014 1037.025 924.794 1036.575 C 924.674 1036.305 924.284 1034.166 924.284 1033.865 C 924.284 1033.655 925.054 1029.395 925.103 1029.275 C 925.393 1028.515 925.923 1027.695 926.303 1026.965 C 926.283 1026.765 926.193 1025.165 926.163 1025.074 C 925.793 1023.755 922.263 1020.744 921.243 1020.005 C 921.243 1018.475 921.463 1013.204 921.243 1011.935 C 920.942 1010.225 920.283 1008.495 920.062 1006.785 C 919.783 1004.615 919.913 1000.435 919.852 998.306 C 919.802 996.096 918.993 989.056 921.243 987.136 L 921.243 968.906 L 911.392 963.236 C 906.613 960.486 901.663 956.646 897.122 953.486 C 895.782 952.547 895.072 951.936 893.672 951.076 C 891.712 949.887 889.242 949.297 887.272 948.097 C 885.333 946.917 882.793 944.746 880.902 943.337 C 880.833 943.276 880.113 942.967 879.982 942.906 C 879.453 942.656 873.652 939.906 873.493 939.866 C 871.383 939.396 870.142 939.446 867.993 939.177 L 856.993 937.786 L 854.743 937.007 C 854.682 936.967 851.942 933.967 851.863 933.866 L 849.762 931.596 C 849.742 931.556 848.442 928.035 848.432 928.026 C 848.363 927.146 848.533 926.656 848.592 925.776 L 848.892 921.297 C 849.283 920.057 849.802 919.486 850.382 918.337 L 853.362 912.417 C 855.042 909.486 857.391 906.786 858.971 903.816 C 859.691 902.456 859.931 901.606 860.541 900.196 C 861.921 897.016 864.331 892.257 864.701 888.686 C 864.27 887.376 863.9 885.716 863.321 884.486 C 862.98 883.776 860.081 881.346 859.591 880.526 L 858.841 878.226 L 858.461 877.076 L 859.581 862.257 L 859.221 860.587 C 859.051 859.767 858.941 858.517 858.621 857.767 C 857.131 854.257 854.611 851.507 852.241 848.567 C 851.4 847.527 850.831 847.007 850.081 845.897 C 848.94 844.207 848.391 841.947 847.31 840.207 C 846.21 838.437 843.081 835.707 841.29 834.628 C 840.68 834.588 840 834.598 839.399 834.508 C 838.679 834.398 831.089 833.278 830.879 833.197 C 829.119 832.517 828.289 831.798 826.629 830.907 L 818.109 826.317 L 814.978 826.007 L 813.402 827.307 Z" style="stroke-width: 2px; stroke: rgb(255, 255, 255); fill: rgb(242, 169, 142);">
    <title>Syunik</title>
  </path>
  <path d="M 693.703 337.658 C 693.674 337.708 693.453 339.418 693.293 340.888 L 693.014 340.878 L 689.014 337.128 L 688.264 332.628 C 688.264 332.628 683.514 330.378 682.014 328.628 C 680.514 326.878 674.764 322.628 674.764 322.628 C 674.764 322.628 671.264 321.378 669.764 321.128 C 668.264 320.878 663.514 316.878 662.014 315.128 C 660.514 313.378 656.764 308.628 655.764 307.128 C 654.764 305.628 650.764 304.628 649.264 305.378 C 647.764 306.128 647.514 304.378 645.264 302.378 C 643.014 300.378 642.014 303.628 640.264 305.128 C 638.514 306.628 635.514 305.378 633.014 303.378 C 630.514 301.378 628.014 300.128 628.014 300.128 C 628.014 300.128 624.514 301.378 622.514 302.128 C 620.514 302.878 620.264 306.128 620.514 308.128 C 620.764 310.128 615.264 311.128 613.514 311.128 C 611.764 311.128 610.264 312.628 607.264 312.128 C 604.264 311.628 600.014 310.878 598.264 311.128 C 596.514 311.378 597.014 312.628 596.764 314.628 C 596.514 316.628 596.014 323.628 596.264 325.628 C 596.514 327.628 596.264 330.878 591.764 333.128 C 587.264 335.378 587.264 335.628 584.514 337.378 C 581.764 339.128 576.514 345.128 575.014 347.378 C 573.514 349.628 573.014 350.378 570.514 348.878 C 568.014 347.378 560.764 344.128 558.764 342.878 C 556.764 341.628 554.264 341.128 552.014 341.128 C 549.764 341.128 548.514 340.378 546.764 338.378 C 545.014 336.378 540.764 331.378 540.764 331.378 C 540.764 331.378 536.264 330.128 534.764 330.128 C 533.264 330.128 532.264 329.128 531.264 330.378 C 530.264 331.628 529.264 333.628 527.264 336.128 C 525.264 338.628 522.264 336.878 521.014 335.878 C 519.764 334.878 518.764 334.628 515.264 336.378 C 511.764 338.128 514.264 339.628 512.514 341.878 C 510.764 344.128 509.514 342.878 506.514 342.878 C 503.514 342.878 503.764 342.378 502.764 340.628 C 501.764 338.878 499.514 338.378 498.514 339.128 C 497.514 339.878 495.054 342.878 495.054 342.878 L 485.474 333.268 L 489.464 324.468 C 489.464 324.468 487.854 320.478 490.264 319.678 C 492.674 318.878 492.674 316.438 492.674 314.858 C 492.674 313.288 492.274 308.438 490.264 307.258 C 488.254 306.088 487.854 305.688 487.854 304.078 C 487.854 302.478 487.854 300.868 487.854 300.868 L 483.064 299.668 L 481.864 290.488 C 481.864 290.488 477.874 286.068 474.264 286.068 C 470.654 286.068 466.694 282.888 469.474 280.888 C 472.254 278.878 473.094 280.078 476.274 278.068 C 479.454 276.068 479.854 274.488 481.864 274.488 C 483.874 274.488 486.254 274.488 487.854 271.278 C 489.464 268.068 491.904 269.238 493.474 268.068 C 495.054 266.888 499.504 266.088 501.074 266.088 C 502.654 266.088 509.874 266.088 509.874 266.088 L 516.674 255.678 C 516.674 255.678 518.284 252.898 517.474 250.088 C 516.674 247.278 515.094 242.888 517.474 241.288 C 519.854 239.678 519.484 235.698 518.284 234.088 C 517.074 232.478 516.674 231.278 515.874 229.668 C 515.064 228.068 514.294 225.688 517.074 224.888 C 519.854 224.078 523.064 219.268 523.064 219.268 C 523.064 219.268 527.084 213.298 525.474 210.088 C 523.874 206.878 523.474 207.648 523.474 204.468 C 523.474 201.288 521.864 199.678 521.864 199.678 L 518.284 197.268 C 518.284 197.268 513.834 200.078 511.854 200.888 C 509.874 201.688 505.034 202.088 503.054 202.088 C 501.074 202.088 500.674 202.088 499.064 200.478 C 497.464 198.878 494.284 196.068 494.284 196.068 C 494.284 196.068 495.484 190.478 493.074 189.268 C 490.664 188.068 489.864 187.288 488.254 185.688 C 486.654 184.078 484.274 180.868 484.274 180.868 C 484.274 180.868 482.234 178.088 487.054 175.278 C 491.874 172.468 492.674 169.688 493.074 168.078 C 493.474 166.478 494.254 162.888 495.854 161.688 C 497.464 160.478 500.244 158.068 502.654 159.678 C 505.064 161.288 510.284 168.078 510.284 168.078 C 510.284 168.078 517.444 169.288 519.854 166.478 C 522.264 163.668 527.484 156.868 531.474 156.868 C 535.454 156.868 537.064 152.478 537.064 152.478 C 537.064 152.478 539.844 148.468 542.254 148.468 C 544.654 148.468 546.264 148.468 546.264 148.468 C 546.264 148.468 547.474 144.478 545.064 142.878 C 542.654 141.268 540.274 140.498 539.874 136.078 C 539.474 131.668 536.284 128.888 533.874 128.888 C 531.474 128.888 528.224 130.488 526.254 130.088 C 524.274 129.688 519.884 126.448 523.064 123.268 C 526.254 120.078 527.084 120.078 524.274 118.068 C 521.464 116.068 520.654 111.678 520.654 111.678 L 521.464 100.868 C 521.464 100.868 519.484 98.088 523.474 98.088 C 527.454 98.088 529.064 97.288 529.064 94.878 C 529.064 92.468 527.264 90.378 527.264 90.378 L 525.264 85.378 L 517.124 83.078 L 516.174 82.908 L 514.274 82.578 C 513.194 82.048 512.274 80.778 511.214 80.178 C 510.944 80.028 505.974 78.648 505.354 78.468 C 505.324 78.458 504.934 78.078 504.884 78.028 C 504.074 77.288 502.864 76.398 502.194 75.548 C 500.094 72.878 498.214 69.868 496.274 67.078 C 496.194 66.968 495.094 64.058 494.954 63.678 C 495.394 62.278 497.704 60.508 498.904 59.868 L 498.884 57.598 L 496.984 54.858 C 497.004 54.778 497.314 53.368 497.334 53.338 L 501.434 46.288 C 501.884 46.538 503.044 46.928 503.284 47.378 C 504.794 50.148 506.384 52.898 507.814 55.708 C 509.854 56.608 511.984 57.728 514.084 58.478 C 515.364 58.938 519.244 58.628 519.984 59.148 C 522.434 60.888 524.364 63.288 527.034 64.788 C 529.114 65.068 531.064 63.358 533.084 63.878 C 538.454 65.278 542.604 66.878 548.184 65.828 L 548.854 64.678 L 550.204 62.398 C 550.624 61.238 550.444 59.688 550.834 58.508 C 550.844 58.478 552.004 56.818 552.064 56.738 C 553.084 55.578 554.404 54.828 555.584 53.878 C 558.154 51.788 560.424 49.178 563.064 47.208 L 565.784 45.898 C 565.824 45.888 568.534 46.078 568.834 46.098 C 569.774 46.738 571.214 47.508 572.014 48.278 C 573.594 49.818 574.374 55.898 574.824 58.048 C 574.834 58.078 574.854 58.238 574.874 58.258 C 576.974 61.188 579.004 64.208 581.194 67.068 C 581.724 67.768 582.734 68.398 583.184 69.128 C 583.964 70.408 584.064 74.368 583.964 75.778 C 583.724 76.218 580.624 81.878 580.584 81.918 C 579.904 82.608 572.514 87.838 571.284 88.738 C 570.974 90.148 571.054 91.448 571.174 92.858 C 571.924 93.768 572.704 94.658 573.464 95.548 C 575.114 95.358 580.264 94.528 581.644 94.588 C 584.644 94.708 593.594 97.058 595.984 96.128 C 598.474 95.158 603.294 91.028 605.424 89.328 C 605.774 89.048 606.224 88.598 606.604 88.388 C 607.224 88.038 609.674 87.558 610.274 87.638 C 611.274 87.778 612.594 88.368 613.574 88.678 L 617.764 92.878 C 617.764 92.878 619.764 96.878 619.764 99.878 C 619.764 102.878 626.264 102.378 626.264 102.378 L 630.264 106.378 C 630.264 106.378 635.264 106.878 638.764 106.878 C 642.264 106.878 641.764 112.378 641.764 112.378 C 641.764 112.378 640.764 117.878 640.264 120.878 C 639.764 123.878 637.264 126.378 637.264 126.378 C 637.264 126.378 629.764 130.378 625.264 130.378 C 620.764 130.378 616.493 129.508 616.493 129.508 C 616.004 129.658 615.283 129.978 614.793 130.028 L 597.373 132.108 L 595.424 132.798 C 594.004 133.818 592.064 136.488 591.314 138.068 C 591.454 139.358 591.734 140.798 591.744 142.088 C 591.744 142.568 591.394 143.158 591.374 143.648 C 591.314 145.168 592.294 146.888 592.354 148.178 C 592.354 148.218 591.864 150.428 591.824 150.598 C 591.334 152.588 589.965 153.208 589.864 155.798 C 589.844 156.368 589.704 157.208 589.784 157.758 C 589.805 157.898 591.925 162.568 592.064 162.908 C 592.124 162.898 592.554 162.878 592.574 162.868 C 593.894 162.078 595.354 161.328 596.604 160.448 C 597.554 159.778 598.374 158.708 599.354 158.088 L 600.964 157.708 C 602.373 157.658 604.663 158.648 605.844 159.308 C 607.134 159.318 609.573 157.748 610.514 157.008 L 613.724 149.288 L 613.333 147.908 C 611.634 147.068 609.943 146.218 608.254 145.358 C 607.943 144.528 608.193 143.038 608.674 142.298 C 608.793 142.218 610.153 141.308 610.194 141.288 C 611.554 140.908 618.034 140.558 619.755 140.388 L 622.074 141.608 C 622.934 143.648 622.984 152.168 623.114 154.718 C 623.114 154.768 623.824 156.348 623.885 156.508 C 624.555 158.048 625.185 159.568 625.605 161.198 L 627.175 162.518 C 628.414 162.868 631.065 161.918 632.124 161.378 C 636.834 162.748 640.624 165.418 642.765 169.378 C 643.565 170.848 644.414 172.308 645.025 173.868 C 646.025 174.258 645.835 177.198 646.875 177.478 L 659.766 182.378 C 660.545 181.918 656.415 174.558 657.766 174.378 C 657.826 174.368 661.696 172.368 661.756 172.348 C 662.926 171.788 664.106 171.178 665.295 170.668 C 666.216 170.278 667.306 170.068 668.186 169.618 C 669.366 169.028 670.556 168.158 671.676 167.458 C 671.745 167.518 672.386 168.058 672.405 168.088 C 672.966 169.148 673.295 170.408 673.805 171.498 C 675.204 174.568 677.914 180.988 680.075 183.488 C 681.745 184.068 684.006 184.118 685.735 183.968 C 685.855 183.958 688.615 183.428 688.645 183.408 L 694.765 185.378 C 694.765 185.378 697.765 185.378 698.765 183.378 C 699.765 181.378 702.265 179.378 702.265 179.378 L 706.765 178.878 L 708.765 171.878 C 708.765 171.878 711.765 172.378 713.765 173.378 C 715.765 174.378 717.265 174.378 720.765 175.378 C 724.265 176.378 722.765 181.878 719.265 183.878 C 715.765 185.878 717.765 192.378 718.265 195.378 C 718.765 198.378 723.765 199.378 723.765 199.378 L 729.825 194.228 C 731.985 194.508 733.405 195.598 734.205 197.628 C 733.935 199.328 733.865 202.738 734.405 204.388 L 736.125 207.708 L 738.825 209.998 C 738.895 210.038 741.655 210.668 741.905 210.728 L 742.725 211.808 C 742.365 214.188 741.935 216.568 741.544 218.948 C 743.404 218.688 745.265 218.348 747.124 218.168 C 748.385 218.038 748.534 218.338 749.555 218.968 L 752.365 224.658 L 753.625 225.538 C 754.525 225.828 755.756 225.868 756.705 226.048 C 758.375 226.358 760.266 226.598 761.905 227.058 C 763.355 227.468 765.765 229.318 767.035 230.168 L 768.655 233.068 L 772.885 231.098 C 773.605 231.568 775.164 232.198 775.704 232.658 C 775.755 232.698 777.144 234.378 777.154 234.408 C 777.175 234.448 777.794 237.058 777.804 237.158 C 778.054 239.498 778.384 243.618 778.364 245.928 C 778.334 249.578 775.204 258.378 773.064 261.368 C 772.954 261.508 769.304 265.758 769.284 265.778 C 768.084 266.758 767.284 267.148 766.005 268.028 L 759.454 272.518 C 754.834 275.848 750.225 279.288 745.684 282.748 C 739.524 287.448 733.324 292.228 727.324 297.148 C 726.175 298.098 724.944 299.518 723.715 300.298 C 722.534 301.038 718.364 302.658 716.694 303.358 C 715.844 303.708 714.524 304.048 713.774 304.538 L 712.604 305.758 C 712.374 305.998 712.144 306.068 712.014 306.378 C 711.163 308.338 709.534 315.568 708.384 317.128 C 707.623 318.158 706.194 319.008 705.314 319.988 C 704.144 321.298 701.024 324.988 700.114 326.358 C 699.194 327.778 698.814 328.658 697.984 330.128 L 693.703 337.658 Z" style="stroke-width: 2px; stroke: rgb(255, 255, 255); fill: rgb(252, 238, 211);">
    <title>Tavush</title>
  </path>
  <path d="M 432.877 580.652 C 434.867 580.982 436.527 582.282 436.527 584.302 C 436.527 586.322 436.527 587.652 436.527 589.312 C 436.527 590.972 436.527 595.322 436.527 595.322 C 436.527 595.322 439.217 595.652 441.207 595.982 C 443.197 596.312 446.877 596.312 448.537 596.652 C 450.207 596.982 451.167 596.652 452.857 595.652 C 454.547 594.652 456.207 594.652 457.207 594.652 C 458.207 594.652 466.537 594.652 466.537 594.652 C 466.537 594.652 470.547 592.632 472.537 591.972 C 474.537 591.302 474.867 590.612 475.867 592.632 C 476.857 594.652 476.857 594.992 476.857 594.992 C 476.857 594.992 481.207 592.632 482.867 591.642 C 484.527 590.642 488.207 588.982 490.537 588.652 C 492.857 588.312 495.217 587.352 496.537 586.652 C 497.867 585.962 501.887 583.642 502.877 582.312 C 503.877 580.982 507.557 576.302 511.877 575.642 C 516.197 574.972 518.857 570.652 525.187 570.992 C 531.527 571.322 532.557 569.632 535.877 568.632 C 539.197 567.642 540.887 568.632 543.217 566.312 C 545.537 563.982 547.887 561.632 551.217 561.962 C 554.537 562.302 557.887 562.652 557.887 562.652 C 557.887 562.652 565.187 563.982 566.547 564.312 C 567.907 564.652 573.187 565.982 573.187 565.982 C 573.187 565.982 575.877 570.322 576.207 571.652 C 576.537 572.982 575.877 577.302 575.877 580.982 C 575.877 584.662 572.527 587.652 570.867 589.642 C 569.207 591.642 569.537 591.972 570.207 592.972 C 570.867 593.962 572.857 594.992 574.547 595.652 C 576.237 596.312 576.207 596.982 575.877 597.982 C 575.547 598.972 575.217 600.302 573.187 602.322 C 571.177 604.342 571.867 608.301 571.867 609.632 C 571.867 610.963 572.857 611.982 574.217 613.982 C 575.567 615.972 578.537 619.982 579.527 620.652 C 580.527 621.312 583.547 624.632 587.867 625.302 C 592.177 625.962 589.547 626.652 589.547 627.982 C 589.547 629.312 589.547 636.652 589.547 639.642 C 589.547 642.632 590.877 641.302 593.207 641.302 C 595.527 641.302 597.547 642.302 599.217 644.312 C 600.877 646.342 603.867 644.312 606.877 644.312 C 609.897 644.312 608.207 644.652 608.537 647.302 C 608.877 649.962 608.537 651.982 607.217 653.312 C 605.887 654.642 605.887 656.632 604.857 658.652 C 603.837 660.673 603.198 662.312 603.198 665.632 C 603.198 668.952 604.198 673.302 605.548 676.982 C 606.908 680.663 607.218 683.323 606.878 686.972 C 606.548 690.632 604.857 692.982 604.857 696.632 C 604.857 697.452 604.828 698.112 604.748 698.652 C 604.508 700.533 603.828 701.102 602.538 702.642 C 600.878 704.632 602.208 709.312 602.538 712.632 C 602.868 715.962 600.878 715.652 598.218 715.652 C 595.558 715.652 595.868 716.312 594.868 717.642 C 593.868 718.972 591.218 720.972 590.878 723.323 C 590.548 725.673 591.968 743.802 591.968 743.802 C 591.258 743.802 590.838 743.662 590.138 743.792 L 587.418 745.312 L 577.978 754.252 C 576.138 755.992 575.198 757.082 573.258 758.712 L 568.808 761.492 L 563.038 767.311 L 553.038 772.811 C 553.038 772.811 543.038 775.811 541.038 775.811 C 539.038 775.811 534.038 770.311 532.538 766.811 C 531.038 763.311 527.538 766.311 527.538 766.311 C 527.538 766.311 525.038 769.311 520.538 768.811 C 516.038 768.311 512.378 771.612 512.378 771.612 C 510.978 771.761 509.538 771.882 508.138 772.072 L 499.998 773.172 C 499.878 773.182 496.538 773.552 496.038 773.712 L 485.758 776.872 L 482.498 776.422 L 481.908 775.782 L 480.728 774.511 C 479.348 772.051 478.268 768.572 476.808 766.251 C 476.808 766.251 474.018 763.721 473.918 763.65 C 473.828 763.581 470.198 762.251 469.918 762.14 C 468.558 760.68 468.718 756.56 468.138 754.64 C 468.138 754.63 466.548 752.05 466.518 752.01 C 466.468 751.95 464.668 750.84 464.488 750.73 C 463.708 751.321 461.578 752.411 460.528 752.071 L 458.788 747.541 L 460.678 742.27 L 459.648 740.09 L 457.228 740.16 L 454.468 742.42 L 451.508 742.77 L 444.568 737.93 L 441.408 735.73 C 440.458 735.17 439.158 734.96 438.228 734.371 C 436.268 733.121 434.348 731.44 432.478 730.02 L 434.358 726.661 L 433.878 724.091 L 427.658 726.261 L 425.398 725.381 C 425.298 725.241 424.338 723.901 424.318 723.841 C 423.678 721.991 424.058 716.101 423.748 713.891 L 423.058 712.511 C 422.868 712.141 421.548 709.791 421.358 709.631 C 419.598 708.081 417.258 707.031 415.508 705.481 C 414.408 704.521 413.128 702.651 412.158 701.492 C 411.798 698.702 411.598 695.731 411.068 692.981 C 411.048 692.881 409.808 689.332 409.808 689.322 L 405.788 684.721 C 405.008 683.831 404.688 683.201 403.778 682.431 C 403.588 682.261 400.258 681.091 399.768 680.811 L 398.298 679.532 C 398.008 679.282 397.788 679.202 397.558 678.891 C 395.858 676.532 394.588 673.761 392.938 671.341 C 390.558 667.862 387.898 664.491 385.408 661.091 C 385.368 661.041 384.118 660.161 383.988 660.061 C 382.568 660.112 378.388 659.731 377.218 658.731 C 375.868 657.572 374.908 655.761 373.558 654.612 C 370.708 652.191 366.368 649.202 363.278 646.882 L 360.778 645.002 L 345.488 645.002 L 332.668 631.731 C 332.668 631.731 334.878 620.622 334.218 617.631 C 333.548 614.641 333.188 611.291 331.868 609.631 C 330.538 607.971 329.868 606.971 329.868 604.651 C 329.868 602.322 329.208 600.631 327.548 599.301 C 325.888 597.981 323.528 595.621 323.868 592.631 C 324.198 589.641 325.218 586.321 327.548 586.651 C 329.868 586.991 335.218 585.961 335.218 585.961 C 335.218 585.961 336.538 584.631 337.868 582.641 C 339.198 580.651 341.548 575.971 343.218 575.971 C 344.878 575.971 348.858 575.641 348.858 575.641 C 348.858 575.641 349.888 578.321 351.878 578.651 C 353.868 578.991 356.528 575.971 356.528 575.971 L 359.878 574.971 C 359.878 574.971 360.538 573.981 361.538 572.651 C 362.538 571.321 364.528 570.321 364.528 570.321 L 367.548 572.651 C 367.548 572.651 368.568 575.611 366.548 576.971 C 364.528 578.321 364.168 580.311 365.528 582.311 C 366.878 584.301 369.538 585.661 369.538 587.321 C 369.538 588.981 370.868 592.631 370.868 592.631 C 370.868 592.631 373.218 592.631 375.218 592.631 C 377.208 592.631 382.878 594.991 382.878 594.991 L 387.198 598.641 C 387.198 598.641 388.858 602.992 388.858 604.311 C 388.858 605.641 390.218 605.641 391.548 603.981 C 392.878 602.322 392.878 603.651 393.208 606.311 C 393.538 608.971 396.168 608.301 397.528 606.971 C 398.878 605.641 401.538 604.011 403.198 602.992 C 404.858 601.962 407.878 600.632 409.868 600.632 C 411.868 600.632 412.218 601.302 413.548 598.972 C 414.878 596.652 416.208 594.962 418.538 593.632 C 420.858 592.302 419.558 591.642 423.548 588.982 C 427.528 586.322 428.888 584.972 429.548 583.642 C 429.968 582.802 430.388 581.692 431.148 581.072 C 431.587 580.722 432.137 580.522 432.877 580.652 Z" style="stroke-width: 2px; stroke: rgb(255, 255, 255); fill: rgb(227, 102, 84);">
    <title>Ararat</title>
  </path>
  <path d="M 90.413 387.444 L 93.403 385.374 L 93.733 384.284 C 94.493 381.784 94.483 381.994 96.033 380.024 C 96.753 379.104 96.783 379.014 97.883 378.504 L 99.963 377.524 C 100.513 377.264 102.953 373.584 103.183 372.704 C 103.293 372.254 104.213 368.484 104.303 368.294 C 104.853 367.124 108.043 363.914 108.383 363.154 C 108.763 362.324 109.013 359.074 109.393 358.424 C 110.673 356.184 113.543 353.364 113.923 350.774 C 114.153 349.254 113.853 347.404 114.193 345.934 C 114.203 345.884 116.213 340.864 116.263 340.794 C 116.383 340.564 116.563 340.534 116.763 340.374 L 117.763 339.534 L 120.653 339.194 C 122.753 337.474 121.843 335.584 122.603 333.894 L 123.673 332.364 L 124.203 331.604 C 123.703 330.624 122.843 329.564 122.463 328.574 C 121.923 327.154 122.053 325.354 121.553 323.924 C 121.033 322.444 120.213 320.924 119.573 319.484 C 120.693 317.064 122.483 313.564 123.273 311.194 C 123.533 310.424 123.573 309.204 123.703 308.384 C 123.743 308.084 123.983 306.614 123.963 306.564 C 123.273 304.034 122.713 301.204 121.813 298.744 C 118.943 290.944 115.643 283.214 112.563 275.484 C 112.093 274.304 111.913 272.674 111.333 271.574 C 111.303 271.514 109.263 269.174 109.113 269.024 C 107.123 266.914 105.063 264.774 102.993 262.744 C 101.543 261.324 100.523 260.774 99.403 258.914 L 98.243 256.584 C 97.913 254.964 98.593 251.984 98.943 250.414 C 99.073 249.824 99.343 249.504 99.283 248.904 C 99.233 248.504 97.253 242.104 97.003 241.294 L 97.233 240.034 C 97.563 238.134 97.713 236.124 98.143 234.244 C 98.493 232.654 99.323 231.014 99.793 229.424 C 98.663 227.564 97.673 225.564 96.753 223.604 C 97.473 221.944 98.043 220.024 98.293 218.234 C 98.133 217.964 96.783 215.664 96.683 215.564 C 94.013 213.094 91.283 210.664 88.673 208.144 C 87.853 207.354 87.183 206.344 86.343 205.594 C 84.833 204.264 83.093 203.164 81.563 201.864 C 80.093 200.604 78.693 199.184 77.283 197.854 C 77.123 197.704 76.943 197.554 76.793 197.394 C 73.623 193.954 72.773 192.594 68.873 190.204 C 68.523 189.984 66.693 188.884 66.183 188.774 C 65.313 188.574 64.283 188.664 63.393 188.544 C 62.533 188.414 62.053 188.314 61.193 188.174 C 58.933 187.794 56.293 187.584 54.113 186.784 C 52.403 186.164 50.533 184.944 49.033 184.044 C 45.873 182.134 42.633 179.964 39.313 178.354 C 36.783 177.134 30.653 176.114 29.063 175.014 C 28.033 174.304 26.903 172.934 25.983 172.044 L 25.773 171.234 L 25.353 169.614 C 25.323 167.854 25.813 166.014 25.823 164.244 C 25.843 162.004 25.563 159.644 25.443 157.394 C 25.443 157.354 25.303 157.084 25.273 157.024 C 25.043 156.504 24.803 155.744 24.493 155.274 C 23.133 153.174 21.123 151.394 19.823 149.234 C 19.013 147.884 18.003 143.984 18.053 142.494 C 18.073 142.014 18.233 141.764 18.343 141.294 L 18.933 138.904 C 20.373 134.714 23.523 128.994 25.673 125.144 C 27.203 125.204 29.143 125.804 30.623 125.574 C 30.783 125.554 32.363 125.324 32.423 125.294 C 33.993 124.614 35.513 123.574 37.043 122.804 C 39.203 121.714 41.423 120.754 43.573 119.654 C 45.253 118.794 48.663 116.824 50.503 116.364 C 52.703 115.814 55.403 115.894 57.643 116.024 C 58.793 116.094 61.243 116.444 62.283 116.974 C 63.003 117.344 63.343 117.674 64.023 118.114 L 67.513 120.394 C 68.943 121.494 70.123 122.994 71.543 124.114 C 72.913 125.194 74.573 126.134 76.023 127.094 C 77.143 127.054 84.033 127.224 84.273 127.174 C 84.323 127.164 89.743 125.074 89.863 125.014 C 91.633 124.094 93.243 122.384 95.043 121.574 L 97.043 121.384 L 98.053 121.284 C 99.983 122.094 102.253 123.244 103.903 124.504 C 105.593 125.774 107.143 127.624 108.903 128.764 C 108.983 128.804 112.243 129.964 112.543 130.064 C 112.773 130.154 113.043 130.334 113.263 130.454 C 114.443 131.074 115.983 132.124 117.223 132.534 L 120.783 133.204 L 122.573 133.534 C 122.743 133.454 124.573 132.634 124.613 132.604 C 124.983 132.294 129.453 126.734 129.833 126.224 C 130.403 125.474 130.833 124.394 131.463 123.704 C 131.743 123.404 131.973 123.304 132.293 123.054 L 133.943 121.734 C 135.673 120.814 137.563 120.554 139.233 119.434 L 146.573 114.474 C 148.003 113.514 148.743 112.864 150.243 112.004 C 150.653 111.764 157.353 108.894 157.893 108.714 C 159.243 108.244 161.793 108.384 163.123 108.484 C 166.303 108.734 171.313 109.504 174.263 109.284 C 178.053 108.994 181.833 108.904 185.633 108.784 C 185.723 108.784 193.053 108.534 193.923 108.714 L 195.703 109.574 C 196.823 110.114 198.153 110.974 199.373 111.624 C 199.023 112.654 198.123 115.834 199.093 118.474 C 200.263 121.684 198.323 122.854 196.713 124.864 C 195.103 126.874 196.313 131.264 195.103 133.664 C 193.903 136.074 195.913 142.064 195.913 142.064 C 195.913 142.064 200.693 145.284 202.703 146.484 C 204.713 147.694 205.913 148.064 207.893 148.064 C 209.873 148.064 211.513 148.064 213.113 149.664 C 214.723 151.274 215.893 150.874 216.293 153.684 C 216.693 156.494 215.493 158.874 215.493 158.874 C 215.493 158.874 221.913 162.484 223.893 163.664 C 225.873 164.834 231.493 168.474 233.103 169.684 C 234.703 170.884 234.303 172.064 233.503 174.474 C 232.693 176.884 234.703 176.884 235.103 179.664 C 235.513 182.444 232.693 184.474 232.693 184.474 C 232.693 184.474 230.693 185.284 228.313 185.284 C 225.933 185.284 225.503 186.084 225.503 188.464 C 225.503 190.844 230.293 190.474 230.293 190.474 C 230.293 190.474 239.493 191.674 241.103 191.674 C 242.703 191.674 250.703 193.284 252.713 193.684 C 254.723 194.084 254.693 196.064 254.693 198.064 C 254.693 200.074 254.693 201.284 251.913 202.884 C 249.133 204.494 250.703 206.874 250.703 209.684 C 250.703 212.494 247.093 213.664 243.513 214.874 C 239.923 216.074 242.303 219.664 242.703 221.664 C 243.103 223.674 246.693 227.664 246.693 227.664 C 246.693 227.664 243.513 227.254 241.903 227.254 C 240.293 227.254 238.693 228.064 239.093 230.474 C 239.493 232.884 237.513 234.854 234.703 233.684 C 231.893 232.504 231.493 230.474 231.493 230.474 C 231.493 230.474 227.513 230.474 224.693 230.474 C 221.883 230.474 219.513 231.674 219.513 231.674 L 215.893 238.064 L 213.913 245.664 C 213.913 245.664 211.513 249.684 209.103 252.064 C 206.693 254.444 209.503 256.074 209.503 256.074 C 209.503 256.074 213.513 262.474 215.493 264.474 C 217.473 266.484 217.503 268.464 215.893 271.274 C 214.293 274.084 217.103 276.464 217.103 276.464 C 217.103 276.464 219.913 278.474 223.893 278.474 C 227.883 278.474 231.893 276.864 231.893 276.864 C 231.893 276.864 234.703 275.254 234.703 276.864 C 234.703 278.474 236.313 281.284 236.313 281.284 L 239.493 285.664 C 239.493 285.664 239.893 288.884 239.493 292.464 C 239.093 296.044 241.903 296.884 241.903 296.884 C 241.903 296.884 246.293 297.284 249.503 297.284 C 252.713 297.284 252.713 294.064 253.913 291.664 C 255.123 289.254 258.703 290.484 260.313 292.064 C 261.913 293.634 263.093 296.074 263.893 298.484 C 264.693 300.894 263.093 304.074 263.093 304.074 C 263.093 304.074 256.693 314.084 255.093 315.254 C 253.483 316.434 253.513 318.474 253.513 320.884 C 253.513 323.284 252.713 324.064 250.703 326.474 C 248.693 328.884 243.913 331.254 243.913 331.254 C 243.913 331.254 234.703 337.284 231.893 338.484 C 229.083 339.694 232.693 342.474 232.693 342.474 C 232.693 342.474 236.313 342.474 237.913 342.064 C 239.523 341.664 243.103 343.274 243.103 343.274 L 243.913 347.254 L 247.493 350.874 L 247.093 362.084 L 271.093 363.254 L 272.293 366.874 C 272.293 366.874 272.293 370.884 270.693 373.264 C 269.083 375.644 269.513 376.884 269.513 379.254 C 269.513 381.634 267.913 384.074 265.503 386.084 C 263.093 388.094 267.513 394.084 267.513 394.084 C 267.513 394.084 270.693 398.064 272.293 398.474 C 273.903 398.874 277.113 400.884 277.113 400.884 C 277.113 400.884 275.913 405.264 274.703 406.874 C 273.503 408.474 272.293 409.684 270.693 410.884 C 269.083 412.094 264.693 415.274 264.693 415.274 C 264.693 415.274 260.313 416.884 255.493 418.084 C 250.673 419.284 249.903 422.064 247.893 424.884 C 245.923 427.634 242.833 427.664 242.703 427.664 C 242.703 427.664 239.093 427.664 235.513 428.064 C 231.923 428.464 227.913 431.274 225.503 433.284 C 223.093 435.284 219.913 435.264 217.503 433.684 C 215.093 432.104 214.293 430.874 214.293 430.874 L 215.493 424.884 L 217.103 419.264 C 217.103 419.264 211.513 417.284 209.503 416.474 C 207.493 415.674 207.893 413.664 208.293 411.264 C 208.693 408.854 206.693 409.284 205.113 409.284 C 203.543 409.284 201.503 408.884 199.893 409.284 C 198.293 409.684 194.703 410.484 194.703 410.484 C 194.703 410.484 191.093 410.884 188.713 411.664 C 186.333 412.434 187.103 414.064 188.713 416.074 C 190.323 418.084 189.913 419.664 187.513 420.064 C 185.103 420.464 184.293 419.264 182.323 418.484 C 180.343 417.714 179.513 418.484 177.503 419.264 C 175.493 420.034 174.693 421.664 173.113 421.664 C 171.543 421.664 169.503 420.464 167.893 418.484 C 166.293 416.504 163.513 415.674 161.903 416.074 C 160.293 416.474 155.913 416.074 155.913 416.074 C 155.913 416.074 153.103 412.464 151.093 410.884 C 149.083 409.314 146.303 412.864 146.303 412.864 L 142.693 410.884 C 142.693 410.884 139.513 408.074 136.293 406.874 C 133.083 405.664 129.903 402.484 129.903 402.484 L 129.903 412.864 L 107.513 412.864 C 107.513 412.864 103.093 417.284 101.513 418.084 C 99.943 418.884 99.513 421.664 100.313 423.274 C 101.113 424.884 101.913 426.484 101.913 426.484 L 101.113 436.464 C 101.113 436.464 93.513 436.864 91.103 436.864 C 88.693 436.864 84.713 437.664 84.713 437.664 C 84.713 437.664 82.303 440.884 82.303 442.854 C 82.303 444.834 81.903 450.084 81.903 450.084 L 76.273 450.024 C 75.863 449.344 75.573 448.474 74.713 446.364 C 74.673 446.274 74.593 446.174 74.533 446.084 L 73.373 445.494 C 70.273 443.914 70.983 444.214 69.043 441.764 L 67.253 441.104 C 66.523 440.144 65.693 438.764 64.843 437.934 C 64.763 437.864 61.683 435.694 61.673 435.694 L 57.793 435.244 L 55.843 435.014 L 53.023 430.784 L 53.063 430.414 C 53.263 428.604 53.383 429.104 52.683 427.454 C 52.533 427.104 52.643 426.024 52.643 425.584 C 53.293 424.814 56.433 421.394 56.813 420.684 C 57.223 419.914 57.423 418.724 57.673 417.844 L 59.773 416.794 C 62.223 415.574 62.213 415.294 64.213 413.344 L 65.583 412.014 L 69.933 411.204 L 73.153 407.854 C 73.523 407.984 73.923 408.074 74.313 408.184 C 76.153 406.394 78.023 404.634 79.873 402.854 L 81.443 405.074 C 81.133 405.494 80.823 405.924 80.483 406.334 L 81.423 407.294 L 83.783 405.624 L 84.113 404.054 L 81.713 399.594 L 82.253 398.344 C 83.203 398.514 84.163 398.644 85.113 398.794 L 86.263 401.434 L 87.943 402.604 L 88.923 400.294 C 88.423 398.334 87.183 394.414 86.933 392.584 C 86.903 392.404 87.193 388.294 87.223 387.844 C 87.223 387.804 87.833 386.564 87.873 386.484 L 88.833 386.164 C 89.353 386.604 89.883 387.024 90.413 387.444 Z" style="stroke-width: 2px; stroke: rgb(255, 255, 255); fill: rgb(242, 169, 142);">
    <title>Shirak</title>
  </path>
  <path d="M 545.023 142.825 C 547.433 144.425 546.223 148.415 546.223 148.415 C 546.223 148.415 544.613 148.415 542.213 148.415 C 539.803 148.415 537.023 152.425 537.023 152.425 C 537.023 152.425 535.413 156.815 531.433 156.815 C 527.443 156.815 522.223 163.615 519.813 166.425 C 517.403 169.235 510.243 168.025 510.243 168.025 C 510.243 168.025 505.023 161.235 502.613 159.625 C 500.203 158.015 497.423 160.425 495.813 161.635 C 494.213 162.835 493.433 166.425 493.033 168.025 C 492.633 169.635 491.833 172.415 487.013 175.225 C 482.193 178.035 484.233 180.815 484.233 180.815 C 484.233 180.815 486.613 184.025 488.213 185.635 C 489.823 187.235 490.623 188.015 493.033 189.215 C 495.443 190.425 494.243 196.015 494.243 196.015 C 494.243 196.015 497.423 198.825 499.023 200.425 C 500.633 202.035 501.033 202.035 503.013 202.035 C 504.993 202.035 509.833 201.635 511.813 200.835 C 513.793 200.025 518.243 197.215 518.243 197.215 L 521.823 199.625 C 521.823 199.625 523.433 201.235 523.433 204.415 C 523.433 207.595 523.833 206.825 525.433 210.035 C 527.043 213.245 523.023 219.215 523.023 219.215 C 523.023 219.215 519.813 224.025 517.033 224.835 C 514.253 225.635 515.023 228.015 515.833 229.615 C 516.633 231.225 517.033 232.425 518.243 234.035 C 519.443 235.645 519.813 239.625 517.433 241.235 C 515.053 242.835 516.633 247.225 517.433 250.035 C 518.243 252.845 516.633 255.625 516.633 255.625 L 509.833 266.035 C 509.833 266.035 502.613 266.035 501.033 266.035 C 499.463 266.035 495.013 266.835 493.433 268.015 C 491.863 269.185 489.423 268.015 487.813 271.225 C 486.213 274.435 483.833 274.435 481.823 274.435 C 479.813 274.435 479.413 276.015 476.233 278.015 C 473.053 280.025 472.213 278.825 469.433 280.835 C 466.653 282.835 470.613 286.015 474.223 286.015 C 477.833 286.015 481.823 290.435 481.823 290.435 L 483.023 299.615 L 487.813 300.815 C 487.813 300.815 487.813 302.425 487.813 304.025 C 487.813 305.635 488.213 306.035 490.223 307.205 C 492.233 308.385 492.633 313.235 492.633 314.805 C 492.633 316.385 492.633 318.825 490.223 319.625 C 487.813 320.425 489.423 324.415 489.423 324.415 L 485.433 333.215 C 485.433 333.215 479.013 331.205 477.033 330.805 C 475.053 330.405 472.613 331.205 470.613 332.815 C 468.603 334.425 463.413 332.015 461.833 330.805 C 460.263 329.605 455.013 328.425 455.013 328.425 C 455.013 328.425 450.223 326.015 448.613 327.625 C 447.013 329.235 443.023 326.825 443.023 326.825 C 443.023 326.825 437.433 324.015 435.833 324.815 C 434.223 325.615 432.213 324.015 430.613 322.435 C 429.003 320.865 428.233 322.035 425.823 322.035 C 423.413 322.035 421.433 316.815 421.433 316.815 C 421.433 316.815 417.423 316.815 414.243 316.015 C 411.053 315.205 407.813 318.015 407.813 318.015 C 407.813 318.015 404.633 320.025 403.023 321.635 C 401.423 323.235 399.013 321.635 397.033 320.425 C 395.053 319.225 394.223 317.215 393.423 315.615 C 392.613 314.005 391.413 313.635 388.233 313.635 C 385.053 313.635 385.023 313.635 382.613 314.805 C 380.203 315.985 379.433 317.215 376.213 317.215 C 373.003 317.215 372.233 318.825 370.623 320.425 C 369.023 322.035 367.813 322.035 365.433 322.035 C 363.053 322.035 355.433 321.235 355.433 321.235 C 355.833 319.655 355.433 318.015 354.223 315.205 C 353.023 312.395 348.633 310.015 347.023 308.815 C 345.423 307.615 341.833 306.835 339.433 306.835 C 337.023 306.835 336.213 306.035 334.213 303.225 C 332.203 300.415 331.023 302.015 329.423 302.825 C 327.813 303.625 325.433 302.825 325.433 302.825 L 321.023 300.015 C 321.023 300.015 318.613 299.205 315.833 297.635 C 313.053 296.055 309.033 296.425 309.033 296.425 C 309.033 296.425 305.423 297.635 303.013 298.035 C 300.603 298.435 302.243 301.215 302.243 304.025 C 302.243 306.835 297.423 307.615 295.413 308.015 C 293.403 308.415 290.223 309.615 287.813 309.615 C 285.403 309.615 278.613 304.025 278.613 304.025 C 278.613 304.025 277.033 301.215 277.033 298.035 C 277.033 294.855 274.223 295.225 272.213 296.025 C 270.213 296.835 263.813 298.435 263.813 298.435 C 263.013 296.025 261.833 293.585 260.233 292.015 C 258.623 290.435 255.043 289.205 253.833 291.615 C 252.633 294.015 252.633 297.235 249.423 297.235 C 246.213 297.235 241.823 296.835 241.823 296.835 C 241.823 296.835 239.013 295.995 239.413 292.415 C 239.813 288.835 239.413 285.615 239.413 285.615 L 236.233 281.235 C 236.233 281.235 234.623 278.425 234.623 276.815 C 234.623 275.205 231.813 276.815 231.813 276.815 C 231.813 276.815 227.803 278.425 223.813 278.425 C 219.833 278.425 217.023 276.415 217.023 276.415 C 217.023 276.415 214.213 274.035 215.813 271.225 C 217.423 268.415 217.393 266.435 215.413 264.425 C 213.433 262.425 209.423 256.025 209.423 256.025 C 209.423 256.025 206.613 254.395 209.023 252.015 C 211.433 249.635 213.833 245.615 213.833 245.615 L 215.813 238.015 L 219.433 231.625 C 219.433 231.625 221.803 230.425 224.613 230.425 C 227.433 230.425 231.413 230.425 231.413 230.425 C 231.413 230.425 231.813 232.455 234.623 233.635 C 237.433 234.805 239.413 232.835 239.013 230.425 C 238.613 228.015 240.213 227.205 241.823 227.205 C 243.433 227.205 246.613 227.615 246.613 227.615 C 246.613 227.615 243.023 223.625 242.623 221.615 C 242.223 219.615 239.843 216.025 243.433 214.825 C 247.013 213.615 250.623 212.445 250.623 209.635 C 250.623 206.825 249.053 204.445 251.833 202.835 C 254.613 201.235 254.613 200.025 254.613 198.015 C 254.613 196.015 254.643 194.035 252.633 193.635 C 250.623 193.235 242.623 191.625 241.023 191.625 C 239.413 191.625 230.213 190.425 230.213 190.425 C 230.213 190.425 225.423 190.795 225.423 188.415 C 225.423 186.035 225.853 185.235 228.233 185.235 C 230.613 185.235 232.613 184.425 232.613 184.425 C 232.613 184.425 235.433 182.395 235.023 179.615 C 234.623 176.835 232.613 176.835 233.423 174.425 C 234.223 172.015 234.623 170.835 233.023 169.635 C 231.413 168.425 225.793 164.785 223.813 163.615 C 221.833 162.435 215.413 158.825 215.413 158.825 C 215.413 158.825 216.613 156.445 216.213 153.635 C 215.813 150.825 214.643 151.225 213.033 149.615 C 211.433 148.015 209.793 148.015 207.813 148.015 C 205.833 148.015 204.633 147.645 202.623 146.435 C 200.613 145.235 195.833 142.015 195.833 142.015 C 195.833 142.015 193.823 136.025 195.023 133.615 C 196.233 131.215 195.023 126.825 196.633 124.815 C 198.243 122.805 200.183 121.635 199.013 118.425 C 198.043 115.785 198.943 112.605 199.293 111.575 C 199.773 111.835 200.243 112.055 200.663 112.215 C 201.863 112.655 205.243 113.105 206.553 112.615 L 210.583 107.955 L 212.333 105.935 C 212.403 105.875 215.753 103.475 215.793 103.455 C 215.873 103.415 220.073 101.965 220.213 101.935 C 221.303 101.665 222.553 101.785 223.653 101.565 L 226.093 100.815 C 228.613 100.055 230.633 98.435 233.043 97.465 C 233.453 97.295 233.723 97.325 234.153 97.235 C 239.273 96.175 241.033 96.965 246.223 97.245 C 251.103 97.515 256.023 97.595 260.913 97.775 C 264.513 97.905 269.093 96.625 271.733 94.105 L 272.893 93.005 L 274.153 90.065 L 276.803 83.895 C 276.403 79.825 271.073 76.085 275.803 72.385 C 276.483 72.345 277.163 72.335 277.843 72.315 C 279.073 73.405 280.873 75.285 282.183 76.165 C 282.463 76.345 282.683 76.305 283.003 76.385 C 284.843 76.895 287.183 77.215 289.053 76.585 C 290.463 75.265 291.913 73.855 293.103 72.325 C 293.973 72.485 295.923 73.825 296.493 74.385 L 297.693 75.945 C 297.923 76.245 298.153 76.365 298.283 76.725 C 298.693 77.875 299.123 82.255 299.663 84.235 C 300.133 85.025 301.403 85.325 302.143 85.495 L 304.783 86.105 C 307.123 86.095 309.633 85.305 311.983 85.165 C 312.543 85.135 318.223 85.595 318.843 85.805 C 321.163 86.605 323.513 87.805 325.773 88.765 C 326.443 89.045 327.403 89.145 328.133 89.325 L 329.533 88.505 C 329.793 87.905 330.293 87.045 330.433 86.425 C 330.463 86.275 330.333 85.095 330.353 84.835 C 330.483 83.065 330.653 79.915 331.963 78.545 C 332.803 77.885 334.643 77.095 335.743 77.235 L 337.103 77.685 L 337.783 77.905 L 345.923 82.815 C 347.503 83.775 348.483 84.195 349.993 85.275 C 352.223 86.875 354.423 89.665 356.643 91.395 L 360.763 94.005 C 360.763 94.005 369.223 96.325 374.723 99.325 C 380.223 102.325 387.223 99.325 389.723 97.325 C 392.223 95.325 395.223 90.825 396.723 88.325 C 398.223 85.825 402.723 81.825 402.723 81.825 L 404.223 86.825 L 402.223 91.825 C 402.223 91.825 402.223 93.825 404.223 95.325 C 406.223 96.825 407.723 96.825 410.223 94.325 C 412.723 91.825 413.723 89.825 413.723 89.825 L 420.223 87.325 L 420.223 92.825 C 420.223 94.825 427.223 96.325 427.223 92.825 C 427.223 89.325 428.723 81.325 428.723 81.325 L 429.403 76.645 C 431.523 76.785 433.583 77.545 435.673 78.145 L 446.343 77.935 C 446.383 77.935 448.003 78.755 448.153 78.825 C 448.503 80.585 449.843 82.735 451.153 83.945 C 451.943 84.255 454.413 84.805 455.213 84.655 C 456.403 84.435 457.593 83.695 458.783 83.465 C 459.213 83.385 459.463 83.435 459.893 83.425 L 462.113 83.325 C 462.883 83.405 464.343 84.405 464.763 85.065 L 465.103 88.985 L 467.013 89.965 L 468.313 89.605 L 470.903 88.895 C 471.003 88.855 474.003 86.275 474.183 86.115 C 476.153 85.565 478.263 85.645 480.283 85.655 C 480.923 85.655 481.293 85.775 481.923 85.655 C 483.553 85.345 487.123 83.945 488.843 83.375 L 491.723 84.495 L 492.623 84.025 L 494.433 83.085 C 494.763 82.985 494.963 83.035 495.303 82.995 L 497.023 82.825 C 499.093 83.025 501.263 84.075 503.053 84.935 L 508.493 87.525 C 508.553 87.555 508.893 87.725 508.933 87.725 C 510.073 87.855 511.333 88.105 512.473 88.125 C 514.683 88.175 520.023 91.065 522.223 90.825 L 527.223 90.325 C 527.223 90.325 529.023 92.415 529.023 94.825 C 529.023 97.235 527.413 98.035 523.433 98.035 C 519.443 98.035 521.423 100.815 521.423 100.815 L 520.613 111.625 C 520.613 111.625 521.423 116.015 524.233 118.015 C 527.043 120.025 526.213 120.025 523.023 123.215 C 519.843 126.395 524.233 129.635 526.213 130.035 C 528.183 130.435 531.433 128.835 533.833 128.835 C 536.243 128.835 539.433 131.615 539.833 136.025 C 540.233 140.445 542.613 141.215 545.023 142.825 Z" style="stroke-width: 2px; stroke: rgb(255, 255, 255); fill: rgb(242, 169, 142);">
    <title>Lori</title>
  </path>
  <path d="M 204.438 637.819 C 204.398 637.839 203.358 638.058 203.218 638.079 L 201.948 636.808 L 201.448 636.748 C 199.738 636.538 196.868 635.968 195.218 635.988 C 193.728 636.008 192.178 636.258 190.678 636.347 C 188.248 636.497 185.808 636.577 183.378 636.717 L 179.298 636.947 C 179.198 636.936 174.768 635.257 174.378 635.106 C 174.198 635.037 174.018 634.917 173.838 634.836 C 172.598 634.226 170.908 633.606 169.778 632.836 C 167.968 631.606 165.588 629.046 163.828 628.026 C 162.438 627.215 158.698 626.145 157.008 625.416 C 155.788 624.895 153.368 623.766 152.298 623.056 C 151.138 622.277 149.908 620.916 148.858 619.966 C 148.838 619.946 148.498 619.856 148.448 619.836 C 147.048 619.406 145.228 619.036 143.918 618.436 C 142.848 617.936 141.588 616.867 140.578 616.197 C 140.478 616.127 140.358 616.056 140.258 615.976 C 137.258 613.596 134.248 611.226 131.268 608.827 C 130.928 608.877 120.328 610.377 119.768 610.297 C 119.528 610.257 113.208 608.777 113.138 608.747 C 113.138 608.747 109.168 605.957 109.068 605.867 C 108.428 605.297 107.998 604.266 107.388 603.637 C 107.318 603.557 105.048 601.658 104.988 601.617 C 103.978 601.016 102.358 600.606 101.218 600.197 C 98.458 599.217 95.758 598.317 93.228 596.767 C 92.388 596.257 91.448 595.117 90.718 594.427 C 90.668 594.377 90.568 594.177 90.518 594.107 L 88.808 591.337 C 88.578 590.977 88.358 590.817 88.228 590.407 C 87.838 589.187 87.728 586.997 87.528 585.667 L 87.938 585.357 C 88.078 584.937 89.458 580.737 89.538 580.607 L 92.838 577.067 C 93.398 576.697 93.828 576.707 94.458 576.477 L 97.708 575.317 C 101.468 574.407 105.428 573.837 109.238 573.107 C 109.258 573.107 110.708 571.857 110.828 571.757 L 111.478 569.857 L 110.868 567.857 L 109.858 566.967 L 107.828 565.187 C 107.148 564.177 105.768 560.637 105.188 559.357 C 104.978 558.897 103.938 556.567 103.898 556.517 C 102.108 554.507 98.228 552.167 95.818 551.067 L 95.208 548.737 C 95.048 548.597 93.468 547.197 93.428 547.137 C 92.818 546.207 92.338 544.697 91.868 543.657 L 92.418 541.547 L 92.838 542.287 L 99.048 544.147 L 100.238 542.047 L 98.968 541.927 L 98.558 540.967 C 99.148 540.167 99.768 539.357 100.378 538.567 L 100.498 535.827 C 100.148 535.757 99.808 535.667 99.448 535.607 L 98.518 534.017 C 99.748 531.827 100.168 531.997 99.818 529.707 L 100.678 528.337 L 100.088 527.047 L 96.998 526.307 L 96.348 525.427 C 98.718 524.777 101.908 523.747 102.878 522.777 C 104.478 521.177 107.698 519.567 107.698 519.567 L 112.478 509.957 C 112.478 509.957 117.268 514.347 119.278 515.957 C 121.288 517.557 122.088 520.807 122.888 522.777 C 123.698 524.757 125.298 527.167 125.298 527.167 C 125.298 527.167 128.888 527.967 130.488 527.167 C 132.098 526.367 134.878 524.757 134.878 524.757 L 137.688 521.577 C 137.688 521.577 136.478 520.367 136.478 518.767 C 136.478 517.157 136.078 512.367 136.078 512.367 C 136.078 512.367 139.328 513.577 140.898 513.977 C 142.478 514.377 146.088 516.357 146.088 516.357 L 164.898 515.557 C 164.898 515.557 168.078 522.347 169.288 524.357 C 170.488 526.367 172.898 530.377 172.898 530.377 C 172.898 530.377 174.478 532.357 176.888 533.957 C 179.298 535.567 180.868 537.177 182.878 537.577 C 184.888 537.977 188.498 541.557 188.898 543.567 C 189.298 545.577 195.298 553.177 195.298 553.177 C 195.298 553.177 196.868 551.597 198.878 554.377 C 200.888 557.157 202.918 557.157 205.698 557.157 C 208.478 557.157 209.688 554.377 209.688 554.377 C 209.688 554.377 212.868 554.777 214.878 554.377 C 216.888 553.977 218.918 551.567 220.898 552.777 C 222.878 553.977 226.088 555.557 226.088 555.557 C 226.088 555.557 230.108 555.177 236.098 553.577 C 242.088 551.967 241.318 550.767 244.498 551.967 C 247.678 553.177 254.478 554.347 256.478 554.747 C 258.488 555.157 258.888 556.357 260.498 555.557 C 262.108 554.747 266.488 552.367 266.488 552.367 C 266.488 552.367 263.678 549.927 264.078 547.157 C 264.478 544.367 265.288 538.777 265.288 535.967 C 265.288 533.157 265.258 531.987 263.678 529.977 C 262.108 527.967 261.698 523.157 261.698 523.157 L 262.878 517.157 L 268.098 521.577 L 272.098 524.107 C 272.098 524.107 276.418 527.097 278.078 528.097 C 279.738 529.087 283.418 528.427 285.408 528.427 C 287.408 528.427 288.428 527.097 289.428 525.437 C 290.418 523.777 291.088 522.417 291.418 519.757 C 291.748 517.107 294.438 518.097 296.428 518.097 C 298.418 518.097 300.748 519.097 302.768 518.767 C 304.788 518.437 309.078 519.427 309.078 519.427 C 309.078 519.427 310.098 522.417 310.438 523.777 C 310.768 525.127 311.098 526.097 312.428 527.757 C 313.758 529.427 314.758 529.427 316.748 529.427 C 318.738 529.427 321.088 529.427 321.088 529.427 C 321.088 529.427 324.078 531.447 326.438 532.107 C 328.788 532.767 329.428 534.437 329.428 534.437 C 329.428 534.437 333.408 540.437 334.098 542.097 C 334.798 543.757 336.098 544.097 339.088 544.097 C 342.078 544.097 347.418 544.427 347.418 544.427 C 347.418 544.427 348.748 544.757 349.738 546.087 C 350.738 547.417 352.098 549.107 353.428 550.097 C 354.758 551.097 356.418 553.757 356.418 553.757 C 356.418 553.757 356.748 560.427 356.748 562.087 C 356.748 563.747 357.078 570.417 357.408 572.107 C 357.738 573.797 357.078 576.427 357.078 576.427 C 357.078 576.427 354.418 579.447 352.428 579.107 C 350.438 578.777 349.408 576.097 349.408 576.097 C 349.408 576.097 345.428 576.427 343.768 576.427 C 342.098 576.427 339.748 581.107 338.418 583.097 C 337.088 585.087 335.768 586.417 335.768 586.417 C 335.768 586.417 330.418 587.447 328.098 587.107 C 325.768 586.777 324.748 590.097 324.418 593.087 C 324.078 596.077 326.438 598.437 328.098 599.757 C 329.758 601.087 330.418 602.778 330.418 605.107 C 330.418 607.427 331.088 608.427 332.418 610.087 C 333.738 611.747 334.098 615.097 334.768 618.087 C 335.428 621.077 333.218 632.187 333.218 632.187 C 330.998 631.377 325.068 629.637 322.618 629.998 C 322.538 630.008 319.998 631.018 319.758 631.118 L 318.708 630.888 C 318.588 629.798 317.838 627.918 316.868 627.279 L 314.028 627.329 L 311.648 624.549 C 310.408 624.889 307.728 625.829 306.568 625.949 C 304.658 626.129 302.508 625.518 300.568 625.638 C 298.578 625.758 293.928 627.659 291.988 628.388 C 290.758 628.678 289.398 629.228 288.178 629.338 C 286.458 629.488 284.628 629.178 282.918 629.358 C 282.268 629.428 280.228 630.688 279.808 631.268 C 279.658 631.468 278.168 633.548 278.108 633.598 C 276.928 634.569 275.098 635.428 273.768 636.228 L 273.548 636.369 L 271.078 632.648 L 268.528 633.659 C 267.188 633.169 264.498 632.619 263.058 633.058 C 261.728 633.468 259.438 635.119 257.988 634.458 L 256.658 631.687 L 255.318 631.528 L 252.658 631.217 C 250.708 631.287 248.698 631.988 246.748 632.077 C 246.748 632.077 240.088 629.266 237.588 627.266 C 235.088 625.266 231.088 625.266 228.588 625.266 C 226.088 625.266 223.588 624.266 221.088 626.266 C 218.588 628.266 215.588 629.766 215.588 629.766 L 210.398 634.426 C 210.348 634.438 204.858 637.579 204.438 637.819 Z" style="stroke-width: 2px; stroke: rgb(255, 255, 255); fill: rgb(227, 102, 84);">
    <title>Armavir</title>
  </path>
  <path d="M 76.113 449.791 L 81.743 449.851 C 81.743 449.851 82.143 444.601 82.143 442.621 C 82.143 440.651 84.553 437.431 84.553 437.431 C 84.553 437.431 88.533 436.631 90.943 436.631 C 93.353 436.631 100.953 436.231 100.953 436.231 L 101.753 426.251 C 101.753 426.251 100.953 424.651 100.153 423.041 C 99.353 421.431 99.783 418.651 101.353 417.851 C 102.933 417.051 107.353 412.631 107.353 412.631 L 129.743 412.631 L 129.743 402.251 C 129.743 402.251 132.923 405.431 136.133 406.641 C 139.353 407.841 142.533 410.651 142.533 410.651 L 146.143 412.631 C 146.143 412.631 148.923 409.081 150.933 410.651 C 152.943 412.231 155.753 415.841 155.753 415.841 C 155.753 415.841 160.133 416.241 161.743 415.841 C 163.353 415.441 166.133 416.271 167.733 418.251 C 169.343 420.231 171.383 421.431 172.953 421.431 C 174.533 421.431 175.333 419.801 177.343 419.031 C 179.353 418.251 180.183 417.481 182.163 418.251 C 184.133 419.031 184.943 420.231 187.353 419.831 C 189.753 419.431 190.163 417.851 188.553 415.841 C 186.943 413.831 186.173 412.201 188.553 411.431 C 190.933 410.651 194.543 410.251 194.543 410.251 C 194.543 410.251 198.133 409.451 199.733 409.051 C 201.343 408.651 203.383 409.051 204.953 409.051 C 206.533 409.051 208.533 408.621 208.133 411.031 C 207.733 413.431 207.333 415.441 209.343 416.241 C 211.353 417.051 216.943 419.031 216.943 419.031 L 215.333 424.651 L 214.133 430.641 C 214.133 430.641 214.933 431.871 217.343 433.451 C 219.753 435.031 222.933 435.051 225.343 433.051 C 227.753 431.041 231.763 428.231 235.353 427.831 C 238.933 427.431 242.543 427.431 242.543 427.431 C 242.673 427.431 245.763 427.401 247.733 424.651 C 249.743 421.831 250.513 419.051 255.333 417.851 C 260.153 416.651 264.533 415.041 264.533 415.041 C 264.533 415.041 268.923 411.861 270.533 410.651 C 272.133 409.451 273.343 408.241 274.543 406.641 C 275.753 405.031 276.953 400.651 276.953 400.651 C 276.953 400.651 273.743 398.641 272.133 398.241 C 270.533 397.831 267.353 393.851 267.353 393.851 C 267.353 393.851 262.933 387.861 265.343 385.851 C 267.753 383.841 269.353 381.401 269.353 379.021 C 269.353 376.651 268.923 375.411 270.533 373.031 C 272.133 370.651 272.133 366.641 272.133 366.641 L 270.933 363.021 L 246.933 361.851 L 247.333 350.641 L 243.753 347.021 L 242.943 343.041 C 242.943 343.041 239.363 341.431 237.753 341.831 C 236.153 342.241 232.533 342.241 232.533 342.241 C 232.533 342.241 228.923 339.461 231.733 338.251 C 234.543 337.051 243.753 331.021 243.753 331.021 C 243.753 331.021 248.533 328.651 250.543 326.241 C 252.553 323.831 253.353 323.051 253.353 320.651 C 253.353 318.241 253.323 316.201 254.933 315.021 C 256.533 313.851 262.933 303.841 262.933 303.841 C 262.933 303.841 264.533 300.661 263.733 298.251 C 263.733 298.251 270.133 296.651 272.133 295.841 C 274.143 295.041 276.953 294.671 276.953 297.851 C 276.953 301.031 278.533 303.841 278.533 303.841 C 278.533 303.841 285.323 309.431 287.733 309.431 C 290.143 309.431 293.323 308.231 295.333 307.831 C 297.343 307.431 302.163 306.651 302.163 303.841 C 302.163 301.031 300.523 298.251 302.933 297.851 C 305.343 297.451 308.953 296.241 308.953 296.241 C 308.953 296.241 312.973 295.871 315.753 297.451 C 318.533 299.021 320.943 299.831 320.943 299.831 L 325.353 302.641 C 325.353 302.641 327.733 303.441 329.343 302.641 C 330.943 301.831 332.123 300.231 334.133 303.041 C 336.133 305.851 336.943 306.651 339.353 306.651 C 341.753 306.651 345.343 307.431 346.943 308.631 C 348.553 309.831 352.943 312.211 354.143 315.021 C 355.353 317.831 355.753 319.471 355.353 321.051 C 354.943 322.621 353.743 327.871 353.743 329.451 C 353.743 331.021 355.783 335.041 356.953 336.651 C 358.133 338.251 358.563 342.241 356.953 343.441 C 355.353 344.651 354.943 345.421 354.943 347.431 C 354.943 349.431 355.373 349.031 357.753 349.831 C 360.133 350.641 362.573 352.681 364.553 354.251 C 366.533 355.831 370.543 357.431 370.143 359.441 C 369.743 361.451 370.143 365.431 370.143 365.431 C 370.143 365.431 374.933 366.641 376.533 368.241 C 378.143 369.851 380.183 370.251 381.753 370.251 C 383.333 370.251 386.573 370.251 388.553 368.651 C 390.533 367.041 392.943 366.241 394.943 366.241 C 396.953 366.241 397.323 365.831 399.333 367.841 C 401.343 369.851 405.353 373.461 404.553 376.241 C 403.753 379.021 402.943 384.271 404.153 386.251 C 405.353 388.231 404.553 391.441 402.943 391.841 C 401.343 392.241 398.163 393.851 398.163 393.851 C 398.163 393.851 396.923 399.471 398.533 401.451 C 400.133 403.431 398.933 405.831 398.933 405.831 L 395.353 407.041 C 395.353 407.041 390.533 409.021 390.533 411.831 C 390.533 414.641 392.533 423.071 392.133 425.051 C 392.133 427.861 391.333 433.451 389.353 436.631 C 387.373 439.811 390.163 442.251 392.533 444.231 C 394.913 446.211 392.943 448.651 391.333 449.851 C 389.723 451.051 386.543 456.241 384.533 456.651 C 382.533 457.051 377.743 457.051 377.743 457.051 L 374.133 462.311 C 374.133 462.311 371.143 467.981 370.473 468.981 C 369.813 469.971 368.483 471.301 367.823 472.961 C 367.153 474.621 366.493 482.981 367.153 484.981 C 367.823 486.971 366.823 489.631 366.823 489.631 L 364.473 489.631 C 364.473 489.631 362.143 489.631 360.483 488.631 C 358.823 487.631 357.463 488.631 355.803 489.301 C 354.143 489.961 351.153 493.641 351.153 494.641 C 351.153 495.631 351.483 504.961 351.483 506.651 C 351.483 508.341 352.153 509.311 353.143 508.981 C 354.143 508.641 357.793 507.981 359.823 507.651 C 361.843 507.321 362.473 508.311 363.143 510.311 C 363.803 512.301 365.133 512.961 366.823 514.651 C 368.513 516.341 370.473 519.631 366.133 519.631 C 361.783 519.631 360.813 523.651 360.813 525.641 C 360.813 527.631 360.153 527.631 358.823 528.631 C 357.493 529.631 356.473 530.981 356.803 531.981 C 357.133 532.981 357.133 537.301 357.133 537.301 C 357.133 537.301 356.133 542.311 355.803 544.301 C 355.473 546.291 353.483 549.971 353.483 549.971 C 352.153 548.981 350.793 547.291 349.793 545.961 C 348.803 544.631 347.473 544.301 347.473 544.301 C 347.473 544.301 342.133 543.971 339.143 543.971 C 336.153 543.971 334.853 543.631 334.153 541.971 C 333.463 540.311 329.483 534.311 329.483 534.311 C 329.483 534.311 328.843 532.641 326.493 531.981 C 324.133 531.321 321.143 529.301 321.143 529.301 C 321.143 529.301 318.793 529.301 316.803 529.301 C 314.813 529.301 313.813 529.301 312.483 527.631 C 311.153 525.971 310.823 525.001 310.493 523.651 C 310.153 522.291 309.133 519.301 309.133 519.301 C 309.133 519.301 304.843 518.311 302.823 518.641 C 300.803 518.971 298.473 517.971 296.483 517.971 C 294.493 517.971 291.803 516.981 291.473 519.631 C 291.143 522.291 290.473 523.651 289.483 525.311 C 288.483 526.971 287.463 528.301 285.463 528.301 C 283.473 528.301 279.793 528.961 278.133 527.971 C 276.473 526.971 272.153 523.981 272.153 523.981 L 268.153 521.451 L 262.933 517.031 L 261.753 523.031 C 261.753 523.031 262.163 527.841 263.733 529.851 C 265.313 531.861 265.343 533.031 265.343 535.841 C 265.343 538.651 264.533 544.241 264.133 547.031 C 263.733 549.801 266.543 552.241 266.543 552.241 C 266.543 552.241 262.163 554.621 260.553 555.431 C 258.943 556.231 258.543 555.031 256.533 554.621 C 254.533 554.221 247.733 553.051 244.553 551.841 C 241.373 550.641 242.143 551.841 236.153 553.451 C 230.163 555.051 226.143 555.431 226.143 555.431 C 226.143 555.431 222.933 553.851 220.953 552.651 C 218.973 551.441 216.943 553.851 214.933 554.251 C 212.923 554.651 209.743 554.251 209.743 554.251 C 209.743 554.251 208.533 557.031 205.753 557.031 C 202.973 557.031 200.943 557.031 198.933 554.251 C 196.923 551.471 195.353 553.051 195.353 553.051 C 195.353 553.051 189.353 545.451 188.953 543.441 C 188.553 541.431 184.943 537.851 182.933 537.451 C 180.923 537.051 179.353 535.441 176.943 533.831 C 174.533 532.231 172.953 530.251 172.953 530.251 C 172.953 530.251 170.543 526.241 169.343 524.231 C 168.133 522.221 164.953 515.431 164.953 515.431 L 146.143 516.231 C 146.143 516.231 142.533 514.251 140.953 513.851 C 139.383 513.451 136.133 512.241 136.133 512.241 C 136.133 512.241 136.533 517.031 136.533 518.641 C 136.533 520.241 137.743 521.451 137.743 521.451 L 134.933 524.631 C 134.933 524.631 132.153 526.241 130.543 527.041 C 128.943 527.841 125.353 527.041 125.353 527.041 C 125.353 527.041 123.753 524.631 122.943 522.651 C 122.143 520.681 121.343 517.431 119.333 515.831 C 117.323 514.221 112.533 509.831 112.533 509.831 L 107.753 519.441 C 107.753 519.441 104.533 521.051 102.933 522.651 C 101.963 523.621 98.773 524.651 96.403 525.301 L 93.603 521.501 C 92.543 521.441 90.823 522.041 90.103 522.851 L 88.533 521.571 L 86.303 521.561 L 85.053 520.381 C 85.273 519.541 85.473 518.701 85.703 517.861 L 84.663 516.161 L 82.243 514.981 C 82.673 513.941 83.133 512.891 83.543 511.841 L 82.923 510.151 L 82.653 509.991 C 82.443 509.861 79.903 508.371 79.873 508.331 C 79.073 507.391 78.783 506.731 78.093 505.711 L 74.543 500.491 C 73.573 498.751 72.423 495.471 71.613 493.541 C 70.583 491.101 69.563 488.641 68.523 486.211 L 69.113 484.991 C 69.213 484.791 70.223 482.711 70.243 482.641 C 70.533 481.211 70.193 479.021 70.593 477.691 C 70.833 476.891 72.533 474.801 72.863 473.911 C 73.273 472.801 73.123 471.191 73.423 470.021 C 73.583 469.391 74.153 468.591 74.463 467.971 C 75.093 466.751 76.553 465.851 77.593 464.991 C 77.623 464.801 78.163 461.771 78.143 461.731 L 76.253 455.821 L 76.933 454.551 L 78.103 454.041 L 78.543 452.671 C 77.193 451.181 76.623 450.621 76.213 449.961 C 76.173 449.901 76.143 449.851 76.113 449.791 Z" style="stroke-width: 2px; stroke: rgb(255, 255, 255); fill: rgb(242, 169, 142);">
    <title>Aragatsotn</title>
  </path>
  <path d="M 606.572 701.774 C 607.572 703.434 610.222 703.764 611.883 701.444 C 613.542 699.115 614.903 698.094 616.893 697.764 C 618.893 697.424 622.903 696.794 623.233 693.444 C 623.573 690.094 623.233 689.424 625.563 689.094 C 627.883 688.764 630.243 687.104 630.243 687.104 C 630.243 687.104 633.563 682.754 634.223 681.764 C 634.893 680.764 635.553 680.434 635.553 678.774 C 635.553 677.104 635.553 672.434 635.553 670.774 C 635.553 669.104 636.242 666.785 638.242 668.444 C 640.232 670.104 645.242 668.474 646.572 667.444 C 647.902 666.424 650.532 664.434 652.883 664.434 C 655.233 664.434 657.233 664.094 658.563 663.764 C 659.883 663.434 661.573 663.764 664.563 664.434 C 667.553 665.094 672.893 665.424 674.563 665.094 C 676.223 664.764 679.903 663.104 682.563 663.434 C 685.212 663.764 688.893 664.094 690.223 663.434 C 691.553 662.774 692.193 660.804 693.212 659.444 C 694.242 658.094 693.572 658.455 696.893 661.444 C 700.223 664.434 701.243 663.764 703.903 662.774 C 706.563 661.774 709.573 657.125 711.573 659.785 C 713.563 662.434 714.913 665.095 717.903 663.104 C 720.893 661.104 724.913 658.424 726.573 658.424 C 728.233 658.424 732.913 657.424 735.233 657.094 C 737.563 656.764 738.223 654.774 739.223 653.444 C 740.223 652.115 742.243 650.755 744.233 649.764 C 746.223 648.764 748.223 647.764 748.883 648.764 C 749.542 649.764 753.893 651.444 753.893 651.444 C 753.893 651.444 755.533 645.804 756.883 643.444 C 758.242 641.094 758.903 637.444 758.903 637.444 C 758.903 637.444 762.893 637.804 764.223 636.444 C 765.542 635.094 768.563 633.785 769.563 637.104 C 770.563 640.434 770.893 641.764 772.223 641.764 C 773.542 641.764 778.893 645.104 778.893 645.104 C 779.163 645.634 782.353 652.075 782.433 652.165 C 782.433 652.165 787.743 655.715 787.792 655.734 C 789.172 656.234 793.883 656.554 795.652 656.955 C 796.962 657.255 798.252 658.064 799.572 658.405 C 800.352 658.604 801.392 658.394 802.152 658.625 L 821.182 664.524 C 821.262 664.554 824.342 666.665 824.642 666.854 C 824.722 666.905 828.522 667.104 828.892 667.104 C 831.702 667.104 839.711 667.615 842.142 668.354 C 844.532 669.075 849.882 672.774 851.642 674.604 C 853.081 676.094 855.602 681.524 855.892 683.604 C 856.232 686.024 854.532 689.375 852.142 690.104 C 849.581 690.884 851.312 694.405 852.642 695.604 C 853.831 696.674 854.692 698.174 855.392 699.604 C 855.562 699.964 856.222 701.905 856.972 704.214 L 847.902 708.443 C 847.902 708.443 843.552 711.103 842.562 712.093 C 841.562 713.093 838.242 718.433 837.541 721.093 C 836.852 723.753 836.882 724.773 832.562 726.773 C 828.242 728.763 827.882 733.773 826.892 735.763 C 825.892 737.763 825.892 738.093 824.232 740.773 C 822.572 743.463 817.232 746.423 817.232 746.423 C 817.232 746.423 815.902 749.103 814.902 751.103 C 813.902 753.093 814.902 755.784 815.572 757.103 C 816.232 758.433 822.242 772.443 822.902 775.763 C 823.572 779.093 822.572 780.773 821.542 783.433 C 820.522 786.093 817.893 795.784 816.893 797.773 C 815.903 799.763 816.233 803.784 816.893 807.103 C 817.563 810.423 814.903 814.103 812.883 815.763 C 810.862 817.423 809.893 821.103 810.223 822.773 C 810.563 824.433 813.412 828.044 813.412 828.044 L 810.232 830.644 L 806.232 836.014 C 805.452 837.054 805.152 837.764 804.232 838.694 C 803.572 839.365 803.022 839.535 802.252 840.075 L 798.292 842.845 C 797.192 843.435 793.732 844.685 792.473 845.095 C 792.383 845.125 790.912 845.275 790.733 845.295 C 790.193 845.355 783.223 846.145 783.163 846.165 C 781.634 846.765 780.943 847.465 779.523 848.285 L 772.252 852.524 C 768.523 854.325 764.282 855.285 760.523 857.045 C 759.523 857.515 757.273 859.675 756.413 860.675 L 747.443 871.185 C 747.283 871.375 744.623 873.165 744.153 873.395 C 743.493 873.715 739.353 875.055 739.113 875.076 C 737.634 875.156 730.593 874.636 728.803 874.105 C 728.593 873.895 727.542 872.786 727.523 872.746 C 726.712 870.836 724.473 865.036 723.603 863.516 L 721.493 861.486 L 720.433 860.476 C 720.063 860.486 712.703 860.747 712.662 860.716 L 705.832 856.986 C 704.492 856.257 703.812 855.696 702.412 855.117 C 701.473 854.726 700.862 854.747 699.872 854.516 C 697.062 853.856 689.832 852.446 687.352 850.996 C 686.382 850.426 685.251 849.216 684.372 848.475 C 684.133 847.555 683.922 846.085 683.513 845.265 C 683.002 844.205 674.872 829.995 674.533 829.595 L 668.313 824.995 L 664.093 824.024 C 663.273 823.844 662.822 823.655 661.992 823.545 L 658.312 823.635 L 656.211 824.765 C 655.802 824.995 655.522 825.045 655.161 825.335 C 655.081 825.395 653.321 827.585 653.141 827.805 C 652.241 828.906 650.861 830.265 650.161 831.465 C 649.201 833.105 648.791 836.465 647.061 837.495 C 646.731 837.535 642.901 837.995 642.821 837.974 C 642.581 837.944 637.831 836.144 637.281 835.944 C 636.611 835.005 635.231 833.415 634.771 832.415 C 634.631 832.095 632.841 826.385 632.831 826.285 C 632.762 824.705 634.211 821.375 634.182 819.724 C 634.182 819.464 632.762 813.314 632.621 812.655 C 633.291 811.035 635.191 807.045 635.581 805.554 C 635.602 805.494 635.472 802.134 635.461 801.844 C 635.411 800.115 635.482 795.634 635.232 794.144 C 635.211 794.044 632.912 786.865 632.842 786.705 C 632.802 786.604 629.262 780.625 629.222 780.575 C 629.012 780.314 623.642 776.335 622.602 775.535 L 621.432 772.305 L 619.081 765.826 C 618.441 764.536 613.182 756.195 612.271 754.975 C 612.231 754.915 609.541 752.815 609.311 752.635 C 607.111 750.906 604.861 748.855 602.54 747.315 C 601.511 746.626 599.181 745.815 597.95 745.345 L 595.96 744.595 L 592.32 744.595 C 592.32 744.595 590.9 726.465 591.23 724.116 C 591.57 721.765 594.22 719.765 595.22 718.435 C 596.22 717.105 595.909 716.445 598.57 716.445 C 601.231 716.445 603.22 716.756 602.89 713.425 C 602.56 710.105 601.23 705.425 602.89 703.435 C 604.18 701.895 604.86 701.326 605.1 699.445 C 605.382 699.865 605.912 700.675 606.572 701.774 Z" style="stroke-width: 2px; stroke: rgb(255, 255, 255); fill: rgb(252, 238, 211);">
    <title>Vayots Dzor</title>
  </path>
  <path d="M 416.825 577.789 C 418.485 576.799 417.485 575.769 417.485 573.109 C 417.485 570.459 418.815 568.099 420.805 567.769 C 422.805 567.439 423.495 566.109 420.805 565.449 C 418.125 564.779 419.145 564.119 419.145 562.789 C 419.145 561.459 419.145 560.439 421.835 560.439 C 424.515 560.439 423.495 557.449 423.495 556.449 C 423.495 555.449 424.155 553.769 422.165 554.459 C 420.175 555.149 418.485 554.119 418.485 554.119 L 419.145 552.439 C 419.145 552.439 420.475 551.109 422.165 550.109 C 423.855 549.109 423.495 547.449 422.825 545.769 C 422.165 544.079 420.475 540.119 419.815 539.119 C 419.145 538.119 417.815 533.449 417.485 532.119 C 417.155 530.789 415.825 529.099 413.495 527.769 C 411.175 526.439 409.485 524.779 409.485 524.779 C 409.485 524.779 409.155 527.109 408.825 528.099 C 408.485 529.099 407.495 531.449 407.495 531.449 C 407.495 531.449 406.165 532.119 404.475 532.119 C 402.785 532.119 402.485 532.779 398.495 531.119 C 394.505 529.459 394.815 531.449 393.485 533.109 C 392.155 534.769 389.835 534.769 388.805 533.109 C 387.785 531.449 385.155 531.779 384.155 532.449 C 383.165 533.109 381.475 534.769 381.475 534.769 C 381.475 534.769 376.155 534.769 374.825 534.769 C 373.495 534.769 370.485 534.439 369.155 535.109 C 367.825 535.769 365.475 535.769 363.815 535.769 C 362.155 535.769 356.475 536.439 356.475 536.439 C 356.475 536.439 356.475 532.119 356.145 531.119 C 355.815 530.119 356.835 528.769 358.165 527.769 C 359.495 526.769 360.155 526.769 360.155 524.779 C 360.155 522.789 361.125 518.769 365.475 518.769 C 369.815 518.769 367.855 515.479 366.165 513.789 C 364.475 512.099 363.145 511.439 362.485 509.449 C 361.815 507.449 361.185 506.459 359.165 506.789 C 357.135 507.119 353.485 507.779 352.485 508.119 C 351.495 508.449 350.825 507.479 350.825 505.789 C 350.825 504.099 350.495 494.769 350.495 493.779 C 350.495 492.779 353.485 489.099 355.145 488.439 C 356.805 487.769 358.165 486.769 359.825 487.769 C 361.485 488.769 363.815 488.769 363.815 488.769 L 366.165 488.769 C 366.165 488.769 367.165 486.109 366.495 484.119 C 365.835 482.119 366.495 473.759 367.165 472.099 C 367.825 470.439 369.155 469.109 369.815 468.119 C 370.485 467.119 373.475 461.449 373.475 461.449 L 377.085 456.189 C 377.085 456.189 381.875 456.189 383.875 455.789 C 385.885 455.379 389.065 450.189 390.675 448.989 C 392.285 447.789 394.255 445.349 391.875 443.369 C 389.505 441.389 386.715 438.949 388.695 435.769 C 390.675 432.589 391.475 426.999 391.475 424.189 C 391.875 422.209 389.875 413.779 389.875 410.969 C 389.875 408.159 394.695 406.179 394.695 406.179 L 398.275 404.969 C 398.275 404.969 399.475 402.569 397.875 400.589 C 396.265 398.609 397.505 392.989 397.505 392.989 C 397.505 392.989 400.685 391.379 402.285 390.979 C 403.895 390.579 404.695 387.369 403.495 385.389 C 402.285 383.409 403.095 378.159 403.895 375.379 C 404.695 372.599 400.685 368.989 398.675 366.979 C 396.665 364.969 396.295 365.379 394.285 365.379 C 392.285 365.379 389.875 366.179 387.895 367.789 C 385.915 369.389 382.675 369.389 381.095 369.389 C 379.525 369.389 377.485 368.989 375.875 367.379 C 374.275 365.779 369.485 364.569 369.485 364.569 C 369.485 364.569 369.085 360.589 369.485 358.579 C 369.885 356.569 365.875 354.969 363.895 353.389 C 361.915 351.819 359.475 349.779 357.095 348.969 C 354.715 348.169 354.285 348.569 354.285 346.569 C 354.285 344.559 354.695 343.789 356.295 342.579 C 357.905 341.379 357.475 337.389 356.295 335.789 C 355.125 334.179 353.085 330.159 353.085 328.589 C 353.085 327.009 354.285 321.759 354.695 320.189 C 354.695 320.189 362.315 320.989 364.695 320.989 C 367.075 320.989 368.285 320.989 369.885 319.379 C 371.495 317.779 372.265 316.169 375.475 316.169 C 378.695 316.169 379.465 314.939 381.875 313.759 C 384.285 312.589 384.315 312.589 387.495 312.589 C 390.675 312.589 391.875 312.959 392.685 314.569 C 393.485 316.169 394.315 318.179 396.295 319.379 C 398.275 320.589 400.685 322.189 402.285 320.589 C 403.895 318.979 407.075 316.969 407.075 316.969 C 407.075 316.969 410.315 314.159 413.505 314.969 C 416.685 315.769 420.695 315.769 420.695 315.769 C 420.695 315.769 422.675 320.989 425.085 320.989 C 427.495 320.989 428.265 319.819 429.875 321.389 C 431.475 322.969 433.485 324.569 435.095 323.769 C 436.695 322.969 442.285 325.779 442.285 325.779 C 442.285 325.779 446.275 328.189 447.875 326.579 C 449.485 324.969 454.275 327.379 454.275 327.379 C 454.275 327.379 459.525 328.559 461.095 329.759 C 462.675 330.969 467.865 333.379 469.875 331.769 C 471.875 330.159 474.315 329.359 476.295 329.759 C 478.275 330.159 484.695 332.169 484.695 332.169 L 494.275 341.779 C 494.275 341.779 494.275 346.969 494.275 348.969 C 494.275 350.979 493.505 351.379 491.895 352.989 C 490.285 354.599 486.675 354.569 486.675 354.569 C 486.675 354.569 487.075 360.189 489.485 363.369 C 491.895 366.549 491.895 366.979 490.695 369.789 C 489.485 372.599 489.085 375.379 489.485 376.989 C 489.885 378.599 490.285 380.969 490.285 383.789 C 490.285 386.599 491.895 389.379 491.895 389.379 C 491.895 389.379 505.085 390.979 507.895 390.979 C 510.705 390.979 511.075 393.789 511.475 395.369 C 511.875 396.949 515.495 405.779 515.495 405.779 C 515.495 405.779 517.875 407.789 517.875 409.789 C 517.875 411.799 517.505 413.379 515.495 414.179 C 513.485 414.979 512.285 418.569 512.285 418.569 C 512.285 418.569 514.285 424.989 515.095 426.969 C 515.895 428.939 521.885 429.379 521.885 429.379 L 529.485 430.579 C 529.485 430.579 531.495 432.189 532.695 434.969 C 533.905 437.749 535.075 440.189 533.095 442.159 C 531.125 444.139 532.695 446.579 531.495 449.759 C 530.285 452.939 531.495 453.779 532.295 455.789 C 533.095 457.789 533.095 458.969 533.095 461.779 C 533.095 464.589 534.275 474.159 534.275 476.969 C 534.275 479.789 537.885 485.379 537.885 485.379 L 539.095 491.369 C 539.095 491.369 540.695 494.179 542.275 496.589 C 543.845 498.999 543.075 500.969 543.075 500.969 L 544.285 508.169 L 539.495 507.769 C 539.495 507.769 537.885 511.379 537.885 513.789 C 537.885 516.199 540.695 521.389 540.695 522.969 C 540.695 524.539 543.875 528.989 545.485 531.769 C 547.095 534.549 548.695 537.389 550.675 538.969 C 552.655 540.539 555.895 544.589 555.895 544.589 L 560.285 544.989 L 563.495 552.189 C 563.495 552.189 567.875 554.169 567.875 556.569 C 567.875 558.979 567.505 559.789 570.695 559.379 C 573.875 558.979 574.385 563.909 573.135 565.449 C 573.135 565.449 567.855 564.119 566.495 563.779 C 565.135 563.449 557.835 562.119 557.835 562.119 C 557.835 562.119 554.485 561.769 551.165 561.429 C 547.835 561.099 545.485 563.449 543.165 565.779 C 540.835 568.099 539.145 567.109 535.825 568.099 C 532.505 569.099 531.475 570.789 525.135 570.459 C 518.805 570.119 516.145 574.439 511.825 575.109 C 507.505 575.769 503.825 580.449 502.825 581.779 C 501.835 583.109 497.815 585.429 496.485 586.119 C 495.165 586.819 492.805 587.779 490.485 588.119 C 488.155 588.449 484.475 590.109 482.815 591.109 C 481.155 592.099 476.805 594.459 476.805 594.459 C 476.805 594.459 476.805 594.119 475.815 592.099 C 474.815 590.079 474.485 590.769 472.485 591.439 C 470.495 592.099 466.485 594.119 466.485 594.119 C 466.485 594.119 458.155 594.119 457.155 594.119 C 456.155 594.119 454.495 594.119 452.805 595.119 C 451.115 596.119 450.155 596.449 448.485 596.119 C 446.825 595.779 443.145 595.779 441.155 595.449 C 439.165 595.119 436.475 594.789 436.475 594.789 C 436.475 594.789 436.475 590.439 436.475 588.779 C 436.475 587.119 436.475 585.789 436.475 583.769 C 436.475 581.749 434.815 580.449 432.825 580.119 C 432.085 579.989 431.535 580.189 431.095 580.539 L 428.145 578.789 C 428.145 578.789 425.155 578.459 423.495 579.119 C 421.835 579.779 419.145 579.779 417.155 580.119 C 415.165 580.449 415.165 578.789 416.825 577.789 Z" style="stroke-width: 2px; stroke: rgb(255, 255, 255); fill: rgb(227, 102, 84);">
    <title>Kotayk</title>
  </path>
  <path d="M 428.152 578.955 L 431.102 580.705 C 430.342 581.325 429.922 582.435 429.502 583.275 C 428.842 584.605 427.482 585.955 423.502 588.615 C 419.512 591.275 420.812 591.935 418.492 593.265 C 416.162 594.595 414.832 596.285 413.502 598.605 C 412.172 600.935 411.822 600.265 409.822 600.265 C 407.832 600.265 404.812 601.595 403.152 602.625 C 401.492 603.645 398.832 605.274 397.482 606.604 C 396.122 607.934 393.492 608.604 393.162 605.944 C 392.832 603.284 392.832 601.955 391.502 603.614 C 390.172 605.274 388.812 605.274 388.812 603.944 C 388.812 602.625 387.152 598.274 387.152 598.274 L 382.832 594.624 C 382.832 594.624 377.162 592.264 375.172 592.264 C 373.172 592.264 370.822 592.264 370.822 592.264 C 370.822 592.264 369.492 588.614 369.492 586.954 C 369.492 585.294 366.832 583.934 365.482 581.944 C 364.122 579.944 364.482 577.954 366.502 576.604 C 368.522 575.244 367.502 572.284 367.502 572.284 L 364.482 569.954 C 364.482 569.954 362.492 570.954 361.492 572.284 C 360.492 573.614 359.832 574.604 359.832 574.604 L 356.482 575.604 C 356.482 575.604 357.142 572.974 356.812 571.284 C 356.482 569.594 356.152 562.924 356.152 561.264 C 356.152 559.604 355.822 552.934 355.822 552.934 C 355.822 552.934 354.162 550.274 352.832 549.274 C 352.832 549.274 354.822 545.594 355.152 543.604 C 355.482 541.614 356.482 536.604 356.482 536.604 C 356.482 536.604 362.162 535.934 363.822 535.934 C 365.482 535.934 367.832 535.934 369.162 535.274 C 370.492 534.604 373.502 534.934 374.832 534.934 C 376.162 534.934 381.482 534.934 381.482 534.934 C 381.482 534.934 383.172 533.274 384.162 532.614 C 385.162 531.944 387.792 531.614 388.812 533.274 C 389.842 534.934 392.162 534.934 393.492 533.274 C 394.822 531.614 394.512 529.624 398.502 531.284 C 402.492 532.944 402.792 532.284 404.482 532.284 C 406.172 532.284 407.502 531.614 407.502 531.614 C 407.502 531.614 408.492 529.264 408.832 528.264 C 409.162 527.274 409.492 524.944 409.492 524.944 C 409.492 524.944 411.182 526.604 413.502 527.934 C 415.832 529.264 417.162 530.954 417.492 532.284 C 417.822 533.614 419.152 538.284 419.822 539.284 C 420.482 540.284 422.172 544.244 422.832 545.934 C 423.502 547.614 423.862 549.274 422.172 550.274 C 420.482 551.274 419.152 552.604 419.152 552.604 L 418.492 554.284 C 418.492 554.284 420.182 555.314 422.172 554.624 C 424.162 553.934 423.502 555.614 423.502 556.614 C 423.502 557.614 424.522 560.604 421.842 560.604 C 419.152 560.604 419.152 561.624 419.152 562.954 C 419.152 564.284 418.132 564.944 420.812 565.614 C 423.502 566.274 422.812 567.604 420.812 567.934 C 418.822 568.264 417.492 570.624 417.492 573.274 C 417.492 575.934 418.492 576.964 416.832 577.954 C 415.172 578.954 415.172 580.614 417.162 580.284 C 419.152 579.944 421.842 579.944 423.502 579.284 C 425.162 578.624 428.152 578.955 428.152 578.955 Z" style="stroke-width: 2px; stroke: rgb(255, 255, 255); fill: rgb(229, 53, 75);">
    <title>Yerevan</title>
  </path>
</svg>